<svg xmlns="http://www.w3.org/2000/svg" xmlns:xlink="http://www.w3.org/1999/xlink" width="60" height="60" viewBox="0 0 60 60">
  <defs>
    <clipPath id="clip-Favicon">
      <rect width="60" height="60"/>
    </clipPath>
  </defs>
  <g id="Favicon" clip-path="url(#clip-Favicon)">
    <g id="Group_21377" data-name="Group 21377">
      <circle id="Ellipse_4" data-name="Ellipse 4" cx="29" cy="29" r="29" transform="translate(1 1)" fill="#fff"/>
      <g id="Group_21367" data-name="Group 21367" transform="translate(3 5)">
        <path id="Path_17865" data-name="Path 17865" d="M-1.017-23.388,7.953-10.317H1.688l-6.445-9.33-2.389,2.434v6.9H-12.33V-40.38h5.183v13.161a3.027,3.027,0,0,1-.947,2.209q-.9.9-1.4,1.307a2.393,2.393,0,0,0-.856,1.848v.5L.38-32.132H7.727Z" transform="translate(29.33 50.38)"/>
      </g>
      <path id="Path_22" data-name="Path 22" d="M182.746,14.535c-3.674,3.674-9.868,3.436-9.868,3.436s-.238-6.194,3.436-9.868,9.868-3.436,9.868-3.436S186.42,10.862,182.746,14.535Z" transform="translate(-143.244 42.467) rotate(-13)" fill="#86ae1d"/>
      <path id="Path_23" data-name="Path 23" d="M182.746,14.535c-3.674,3.674-9.868,3.436-9.868,3.436s-.238-6.194,3.436-9.868,9.868-3.436,9.868-3.436S186.42,10.862,182.746,14.535Z" transform="translate(-143.244 42.467) rotate(-13)" fill="#86ae1d"/>
      <path id="Path_24" data-name="Path 24" d="M186.953,6.265a13.411,13.411,0,0,0-5.426,4.76c-.793,1.172-1.565,3.373-.576,4.666s3.292-.655,4.014-1.377c2.9-2.9,3.113-7.529,3.12-8.683A4.543,4.543,0,0,1,186.953,6.265Z" transform="translate(-145.672 42.712) rotate(-13)" fill="#fff" style="mix-blend-mode: soft-light;isolation: isolate"/>
      <path id="Path_25" data-name="Path 25" d="M176.162,17.651a4.755,4.755,0,0,1-.933-4.658A12.723,12.723,0,0,1,180.2,7.3a15.344,15.344,0,0,1,5.98-2.6V4.667s-6.194-.238-9.868,3.436-3.436,9.868-3.436,9.868a16.738,16.738,0,0,0,3.307-.293Z" transform="translate(-143.244 42.467) rotate(-13)" fill="#d9d9d9" style="mix-blend-mode: multiply;isolation: isolate"/>
      <path id="Path_26" data-name="Path 26" d="M186.938,4.951s-13.9,6.387-8.426,12.595l1.509-.423S173.775,12.523,186.938,4.951Z" transform="translate(-144.617 42.689) rotate(-13)" fill="#fff" style="mix-blend-mode: soft-light;isolation: isolate"/>
      <path id="Path_27" data-name="Path 27" d="M172.879,18.5l.125-.149c.083-.1.2-.241.355-.418.308-.357.752-.865,1.3-1.461.272-.3.567-.623.884-.959s.648-.7,1-1.058.708-.743,1.081-1.119l1.128-1.144,1.144-1.129c.374-.374.756-.73,1.118-1.081s.721-.683,1.058-1,.66-.612.959-.884c.6-.545,1.1-.989,1.462-1.3s.567-.479.567-.479-.17.209-.479.567-.752.865-1.3,1.462c-.271.3-.567.623-.884.959s-.648.7-1,1.058-.707.744-1.081,1.118l-1.129,1.144-1.144,1.128c-.376.374-.756.73-1.119,1.081s-.721.683-1.058,1-.66.612-.959.884c-.6.545-1.1.989-1.461,1.3-.177.156-.322.273-.418.355Z" transform="translate(-143.364 41.954) rotate(-13)" fill="#628115"/>
      <g id="Group_13" data-name="Group 13" transform="translate(28.938 12.396) rotate(-13)">
        <path id="Path_28" data-name="Path 28" d="M175.348,21.04l.074-.023c.048-.014.119-.037.209-.063.18-.053.438-.127.749-.208.155-.042.324-.086.5-.13s.367-.093.562-.138.4-.1.6-.14l.624-.138.625-.13c.207-.044.411-.08.608-.12s.387-.072.569-.105.353-.062.511-.088c.317-.053.582-.092.768-.118s.293-.038.293-.038-.1.033-.282.085-.438.127-.749.209c-.156.041-.324.086-.5.13s-.367.093-.563.138-.4.1-.6.14l-.623.138-.625.13c-.206.044-.41.08-.608.12s-.388.072-.569.105-.353.062-.511.088c-.317.053-.582.092-.768.118-.093.014-.166.022-.216.028Z" transform="translate(-175.32 -14.184)" fill="#628115"/>
        <path id="Path_29" data-name="Path 29" d="M175.307,18.354l.022-.074c.014-.048.038-.119.063-.209.052-.181.126-.438.208-.749.041-.155.085-.323.13-.5s.093-.366.138-.562.1-.4.14-.6l.138-.623.13-.626c.044-.206.08-.41.12-.607s.072-.388.105-.569.062-.353.088-.511c.053-.317.091-.582.117-.768s.038-.293.038-.293-.033.1-.086.283-.127.438-.208.749c-.042.155-.086.324-.13.5s-.092.367-.137.562-.1.4-.14.6-.092.415-.138.624l-.13.625c-.044.206-.08.41-.119.607s-.072.389-.105.569-.062.353-.089.511c-.053.317-.092.582-.118.769-.014.093-.022.166-.028.216Z" transform="translate(-175.307 -11.657)" fill="#628115"/>
      </g>
      <g id="Group_14" data-name="Group 14" transform="translate(29.91 10.841) rotate(-13)">
        <path id="Path_30" data-name="Path 30" d="M177.25,19.137l.074-.023c.048-.015.119-.038.209-.063.18-.053.438-.127.749-.209.155-.041.324-.086.5-.13s.366-.093.562-.138.4-.1.6-.14l.624-.138.625-.13c.207-.044.411-.08.608-.119s.388-.073.569-.106.353-.062.511-.088c.316-.053.582-.092.768-.117s.293-.038.293-.038-.1.033-.282.086-.438.127-.749.208c-.156.042-.324.086-.5.13s-.366.093-.562.138-.4.1-.6.14l-.624.138-.625.13c-.206.044-.41.08-.607.119s-.388.072-.569.105-.353.062-.511.089c-.317.053-.582.091-.769.117-.093.014-.166.022-.216.029Z" transform="translate(-177.223 -12.282)" fill="#628115"/>
        <path id="Path_31" data-name="Path 31" d="M177.21,16.451l.023-.074c.014-.048.038-.119.063-.209.052-.181.127-.438.208-.749.042-.155.086-.324.13-.5s.093-.367.138-.563.1-.4.141-.6l.138-.624c.044-.209.087-.419.13-.625s.081-.411.12-.607.073-.389.105-.569.062-.353.088-.511c.053-.317.092-.582.118-.768s.038-.293.038-.293-.033.1-.085.282-.127.438-.208.749c-.042.155-.087.324-.13.5s-.093.367-.138.563-.1.4-.14.6l-.138.624c-.043.209-.087.419-.13.625s-.08.411-.119.608-.073.388-.106.569-.062.353-.088.511c-.053.317-.092.582-.118.768-.014.093-.022.166-.028.216Z" transform="translate(-177.21 -9.755)" fill="#628115"/>
      </g>
      <g id="Group_15" data-name="Group 15" transform="translate(31.393 10.146) rotate(-13)">
        <path id="Path_32" data-name="Path 32" d="M184.808,15.755c-.151.02-.368.053-.626.1-.13.021-.269.044-.417.072s-.3.054-.464.086-.327.061-.494.1l-.509.106-.508.113c-.168.036-.332.077-.492.114s-.312.076-.458.113-.283.072-.409.106c-.254.066-.464.126-.61.169l-.17.051-.06.019.063-.008c.04-.005.1-.012.176-.023.152-.021.368-.053.626-.1.129-.022.269-.045.417-.072s.3-.054.464-.085.327-.062.494-.1l.509-.106.508-.113c.168-.035.332-.077.492-.114s.312-.076.458-.113.282-.072.408-.105c.254-.067.464-.127.611-.17s.23-.07.23-.07S184.96,15.734,184.808,15.755Z" transform="translate(-179.569 -11.31)" fill="#628115"/>
        <path id="Path_33" data-name="Path 33" d="M179.628,14.477c.043-.147.1-.357.169-.61.033-.127.07-.264.106-.41s.075-.3.113-.458.077-.323.114-.491.075-.338.113-.509l.106-.509c.036-.168.066-.334.1-.494s.059-.316.085-.464.05-.287.072-.417c.043-.258.074-.474.1-.626s.031-.239.031-.239-.027.084-.07.23-.1.357-.17.61c-.033.126-.07.264-.106.409s-.075.3-.112.458-.078.323-.115.491-.074.338-.113.508l-.106.509c-.035.168-.065.334-.1.494s-.059.316-.085.464-.05.288-.072.417c-.043.258-.074.475-.1.626-.011.076-.017.136-.023.177l-.008.062s.006-.021.018-.06S179.607,14.55,179.628,14.477Z" transform="translate(-179.558 -9.251)" fill="#628115"/>
      </g>
      <g id="Group_16" data-name="Group 16" transform="translate(32.99 8.906) rotate(-13)">
        <path id="Path_34" data-name="Path 34" d="M186.563,13.35c-.125.017-.3.043-.514.078-.106.018-.222.037-.342.059s-.249.044-.38.07-.269.05-.407.08l-.418.087-.417.093c-.138.03-.273.063-.4.094s-.256.062-.376.092-.232.059-.336.087c-.208.055-.38.1-.5.139-.061.017-.107.033-.14.042l-.049.015.051-.006.145-.019c.125-.018.3-.043.514-.079.106-.017.222-.036.342-.059s.25-.044.381-.07.268-.051.406-.08l.419-.087.418-.093c.138-.029.272-.063.4-.093s.257-.063.376-.093.233-.059.336-.087c.208-.055.381-.1.5-.139s.189-.057.189-.057S186.687,13.333,186.563,13.35Z" transform="translate(-182.258 -9.699)" fill="#628115"/>
        <path id="Path_35" data-name="Path 35" d="M182.307,12.3c.035-.121.085-.293.139-.5.027-.1.057-.217.087-.336s.062-.245.092-.376.064-.265.094-.4.061-.278.093-.417.058-.281.087-.419.054-.275.08-.406.049-.26.071-.38.042-.237.059-.343c.035-.211.062-.389.079-.514s.025-.2.025-.2-.022.068-.057.189-.085.293-.14.5c-.027.1-.057.217-.087.336s-.062.245-.092.376-.064.266-.093.4-.061.278-.093.417-.059.28-.087.419-.054.274-.08.406-.048.26-.07.381-.042.236-.059.342c-.035.212-.061.39-.078.514-.009.062-.015.111-.019.145s-.007.051-.007.051l.016-.049C182.274,12.408,182.29,12.361,182.307,12.3Z" transform="translate(-182.249 -8.008)" fill="#628115"/>
      </g>
      <g id="Group_17" data-name="Group 17" transform="translate(34.344 7.984) rotate(-13)">
        <path id="Path_36" data-name="Path 36" d="M187.916,11.383c-.1.014-.241.035-.409.063-.085.014-.176.029-.272.047s-.2.035-.3.056-.213.04-.323.063l-.333.07-.332.074c-.109.024-.217.05-.321.074s-.2.05-.3.074-.185.047-.267.069c-.165.043-.3.083-.4.11l-.111.033-.04.012.041-.005c.027,0,.066-.007.115-.015.1-.014.24-.034.408-.063.085-.014.176-.029.272-.047s.2-.035.3-.056.213-.04.323-.063l.333-.069.331-.074c.11-.023.217-.05.321-.074l.3-.074c.095-.023.184-.047.267-.069.165-.044.3-.083.4-.11s.15-.046.15-.046S188.015,11.369,187.916,11.383Z" transform="translate(-184.495 -8.481)" fill="#628115"/>
        <path id="Path_37" data-name="Path 37" d="M184.534,10.549c.028-.1.067-.233.11-.4.022-.083.046-.172.069-.267s.049-.2.074-.3.05-.211.074-.321.049-.22.074-.331.046-.223.069-.333.043-.218.064-.323.038-.206.056-.3.033-.188.046-.272c.029-.168.049-.31.063-.408s.02-.156.02-.156-.018.055-.046.151-.068.233-.111.4c-.022.083-.046.173-.069.267s-.049.2-.073.3-.051.211-.074.32-.049.22-.074.332-.046.223-.069.333-.043.218-.064.323-.038.207-.056.3-.033.188-.047.272c-.028.168-.048.31-.063.409-.007.049-.012.088-.015.115l0,.041.012-.04C184.508,10.634,184.52,10.6,184.534,10.549Z" transform="translate(-184.488 -7.136)" fill="#628115"/>
      </g>
      <g id="Group_18" data-name="Group 18" transform="translate(35.71 6.952) rotate(-13)">
        <path id="Path_38" data-name="Path 38" d="M189.388,9.342c-.075.011-.183.027-.311.048l-.207.036c-.073.013-.15.027-.23.042s-.162.031-.246.048l-.253.053-.252.056-.244.057c-.079.018-.155.038-.228.056l-.2.053c-.125.033-.23.063-.3.085l-.085.025-.03.01.031,0,.087-.012c.075-.01.183-.026.311-.048.064-.011.134-.022.207-.035s.151-.027.23-.043.162-.031.245-.048l.254-.053.252-.056c.083-.018.164-.038.244-.057s.155-.038.227-.056.14-.035.2-.052c.125-.033.23-.063.3-.085s.115-.035.115-.035Z" transform="translate(-186.785 -7.135)" fill="#628115"/>
        <path id="Path_39" data-name="Path 39" d="M186.814,8.708c.022-.073.052-.177.085-.3.016-.063.035-.131.053-.2s.038-.148.056-.228.039-.16.057-.243.038-.168.056-.252.035-.17.052-.253.033-.166.048-.246.03-.157.043-.23.025-.143.035-.207c.021-.128.038-.236.048-.311s.015-.119.015-.119-.013.042-.034.115-.052.177-.085.3c-.017.063-.035.131-.052.2s-.038.149-.056.228-.039.16-.057.244-.038.168-.056.252l-.053.253c-.018.083-.033.166-.048.245s-.029.158-.043.23-.025.143-.035.207c-.022.128-.038.235-.048.311-.005.038-.009.067-.011.087l0,.031.009-.029C186.8,8.773,186.8,8.744,186.814,8.708Z" transform="translate(-186.78 -6.112)" fill="#628115"/>
      </g>
      <g id="Group_19" data-name="Group 19" transform="translate(36.89 6.104) rotate(-13)">
        <path id="Path_40" data-name="Path 40" d="M190.613,7.6c-.054.008-.13.018-.222.034l-.148.025-.165.031c-.057.012-.116.022-.176.035l-.181.038-.181.04-.175.041-.163.04-.145.038c-.091.024-.165.045-.217.06L188.78,8l-.022.007.023,0L188.843,8l.222-.034.148-.026.165-.03.177-.035.181-.038.181-.04c.06-.013.118-.028.175-.041l.163-.04.145-.038c.091-.024.165-.045.217-.061l.082-.025Z" transform="translate(-188.75 -6.022)" fill="#628115"/>
        <path id="Path_41" data-name="Path 41" d="M188.771,7.148c.016-.052.037-.127.06-.217.012-.045.025-.093.038-.145s.027-.106.04-.163.028-.115.041-.175.027-.12.04-.181.025-.121.038-.181.023-.119.034-.176.022-.113.031-.165.018-.1.026-.148c.015-.092.027-.168.033-.223s.012-.085.012-.085l-.025.082c-.016.053-.036.127-.06.217-.012.045-.025.094-.038.146s-.027.106-.04.163-.028.115-.041.175-.027.12-.04.181-.025.121-.037.181-.024.119-.035.175-.021.113-.031.165-.018.1-.025.149c-.016.091-.027.168-.034.222,0,.027-.006.048-.008.063l0,.022s0-.007.007-.021S188.764,7.175,188.771,7.148Z" transform="translate(-188.746 -5.29)" fill="#628115"/>
      </g>
    </g>
  </g>
</svg>
