<?xml version="1.0" encoding="UTF-8"?>
<svg xmlns="http://www.w3.org/2000/svg" version="1.1" viewBox="0 0 285.2 112">
  <defs>
    <style>
      .cls-1 {
        fill: #694b37;
      }

      .cls-2 {
        isolation: isolate;
      }

      .cls-3 {
        fill: #fff;
        mix-blend-mode: soft-light;
      }

      .cls-4 {
        fill: #d9d9d9;
        mix-blend-mode: multiply;
      }

      .cls-5 {
        fill: #628115;
      }

      .cls-6 {
        fill: #775c4a;
      }

      .cls-7 {
        opacity: .5;
      }

      .cls-8 {
        stroke-width: .5px;
      }

      .cls-8, .cls-9 {
        fill: none;
        stroke: #443328;
        stroke-linecap: round;
        stroke-linejoin: round;
      }

      .cls-9 {
        stroke-width: .2px;
      }

      .cls-10 {
        fill: #86ae1d;
      }
    </style>
  </defs>
  <!-- Generator: Adobe Illustrator 28.7.1, SVG Export Plug-In . SVG Version: 1.2.0 Build 142)  -->
  <g class="cls-2">
    <g id="Layer_1">
      <g>
        <g>
          <path d="M25.3,63l20,29.2h-14l-14.4-20.8-5.3,5.4v15.4H0V25.1h11.6v29.4c0,1.9-.7,3.5-2.1,4.9s-2.4,2.3-3.1,2.9c-1.3,1.1-1.9,2.5-1.9,4.1v1.1l24-24.1h16.4l-19.5,19.5Z"/>
          <path d="M81.9,43.5h11.6v48.7h-11.5v-1.6c3.5-3,5.2-5.6,5.2-8v-2c-.1.3-.4.8-.7,1.4-.3.6-1.1,1.6-2.2,3.1-1.1,1.5-2.4,2.8-3.7,3.9-1.3,1.1-3.1,2.2-5.3,3.1-2.2.9-4.5,1.4-6.9,1.4-6.4,0-11.8-2.3-16.4-6.8-4.5-4.5-6.8-10-6.8-16.4v-4.6c0-6.4,2.3-11.8,6.8-16.4,4.5-4.5,10-6.8,16.4-6.8s10.1,1.6,13.5,4.9v-3.9ZM81.9,69.9v-4c0-3.3-1.1-6.1-3.4-8.4-2.3-2.3-5.1-3.5-8.4-3.5h-1.4c-3.3,0-6.1,1.2-8.4,3.5-2.3,2.3-3.5,5.1-3.5,8.4v4c0,3.3,1.2,6.1,3.5,8.4,2.3,2.3,5.1,3.5,8.4,3.5h1.4c3.3,0,6.1-1.2,8.4-3.5,2.3-2.3,3.4-5.1,3.4-8.4Z"/>
          <path d="M128,63l20,29.2h-14l-14.4-20.8-5.3,5.4v15.4h-11.6V25.1h11.6v29.4c0,1.9-.7,3.5-2.1,4.9s-2.4,2.3-3.1,2.9c-1.3,1.1-1.9,2.5-1.9,4.1v1.1l24-24.1h16.4l-19.5,19.5Z"/>
          <path class="cls-1" d="M172.9,79.6l5.2,2.1-3.9,10.5-7-2.7c-3.6-1.3-6.4-3.6-8.6-6.7-2.1-3.2-3.2-6.6-3.2-10.4v-21.8h-5.4v-7h5.4v-10.4l11.6-7.2v17.6h6.2v7h-6.2v20.1c0,1.9.6,3.7,1.7,5.4,1.1,1.6,2.5,2.8,4.3,3.6Z"/>
          <path d="M218.1,43.5h11.6v48.7h-11.5v-1.6c3.5-3,5.2-5.6,5.2-8v-2c-.1.3-.4.8-.7,1.4-.3.6-1.1,1.6-2.2,3.1-1.1,1.5-2.4,2.8-3.7,3.9-1.3,1.1-3.1,2.2-5.3,3.1-2.2.9-4.5,1.4-6.9,1.4-6.4,0-11.8-2.3-16.4-6.8-4.5-4.5-6.8-10-6.8-16.4v-4.6c0-6.4,2.3-11.8,6.8-16.4,4.5-4.5,10-6.8,16.4-6.8s10.1,1.6,13.5,4.9v-3.9ZM218.1,69.9v-4c0-3.3-1.1-6.1-3.4-8.4-2.3-2.3-5.1-3.5-8.4-3.5h-1.4c-3.3,0-6.1,1.2-8.4,3.5-2.3,2.3-3.5,5.1-3.5,8.4v4c0,3.3,1.2,6.1,3.5,8.4s5.1,3.5,8.4,3.5h1.4c3.3,0,6.1-1.2,8.4-3.5,2.3-2.3,3.4-5.1,3.4-8.4Z"/>
          <path d="M273.7,43.5h11.5v46.5c0,1.1-.2,2.3-.5,3.8-.3,1.5-1,3.3-2,5.5-1,2.2-2.4,4.2-4,6-1.6,1.8-3.9,3.3-6.9,4.6-3,1.3-6.4,2-10.3,2h-17.5c0,.1.1-10.3.1-10.3h17.9c1.8,0,3.4-.4,4.9-1.2,1.4-.8,2.6-1.8,3.4-2.9.8-1.1,1.5-2.3,2-3.5.5-1.2.9-2.2,1.1-3l.2-1.2c-3.1,2.2-8.2,3.3-15.2,3.3s-11-2.3-15.2-7c-4.2-4.7-6.2-10.1-6.2-16.4v-3.1c0-6.2,2-11.6,6-16.3,4-4.7,9-7.3,14.9-8,2.8-.3,5.3,0,7.8.7,2.4.7,4.4,1.7,6,3,1.5,1.3,2.9,2.6,4,3.9,1.1,1.3,2,2.5,2.5,3.4l.7,1.5v-1.9c0-1.3-.5-2.7-1.6-4.1-.5-.7-1.1-1.3-1.7-2-.6-.6-1.1-1.1-1.4-1.4l-.5-.5v-1.7ZM273.7,69.8v-4.1c0-3.3-1.2-6.1-3.5-8.4-2.3-2.3-5.1-3.4-8.4-3.4h-1.4c-3.3,0-6.1,1.1-8.4,3.4-2.3,2.3-3.5,5.1-3.5,8.4v4.1c0,3.3,1.2,6.1,3.5,8.4,2.3,2.3,5.1,3.5,8.4,3.5h1.4c3.3,0,6.1-1.2,8.4-3.5s3.5-5.1,3.5-8.4Z"/>
        </g>
        <path class="cls-6" d="M156.2,33.4s11,14.5,7.4,28.7c-3.8,14.7,3.5,24.4,10.6,28.8,0,0-16-2-18-17.6v-39.9Z"/>
        <g>
          <g>
            <path class="cls-10" d="M166.7,13.8c0,7.6-6.7,13.8-6.7,13.8,0,0-6.7-6.2-6.7-13.8s6.7-13.8,6.7-13.8c0,0,6.7,6.2,6.7,13.8Z"/>
            <path class="cls-10" d="M166.7,13.8c0,7.6-6.7,13.8-6.7,13.8,0,0-6.7-6.2-6.7-13.8s6.7-13.8,6.7-13.8c0,0,6.7,6.2,6.7,13.8Z"/>
            <path class="cls-3" d="M159.6,3c-1.2,3.5-1.4,7-.7,10.6.4,2,1.9,5.1,4.2,5.4,2.4.3,2.7-4.1,2.7-5.6,0-6-4.6-11-5.8-12.2,0,0-.2,1-.5,1.8Z"/>
            <path class="cls-4" d="M163.1,23.9c-2.4-.2-4.8-1.6-5.8-3.9-1.6-3.6-1.4-7.3-.8-11.1.6-3.1,1.7-6.3,3.5-8.9,0,0,0,0,0,0,0,0-6.7,6.2-6.7,13.8s6.7,13.8,6.7,13.8c0,0,1.5-1.4,3.1-3.7,0,0,0,0,0,0Z"/>
            <path class="cls-3" d="M159.5.9s-7.8,21,4.3,21.8l1.1-2s-11.2,1.7-5.4-19.8Z"/>
            <path class="cls-5" d="M160,27.6s0,0,0-.3c0-.2,0-.5,0-.8,0-.7-.1-1.7-.2-2.9,0-.6,0-1.2,0-1.9,0-.7,0-1.4,0-2.1,0-.7,0-1.5,0-2.3,0-.8,0-1.6,0-2.4,0-.8,0-1.6,0-2.4,0-.8,0-1.5,0-2.3,0-.7,0-1.5,0-2.1,0-.7,0-1.3,0-1.9,0-1.2.1-2.2.2-2.9,0-.7,0-1.1,0-1.1,0,0,0,.4,0,1.1,0,.7.1,1.7.2,2.9,0,.6,0,1.2,0,1.9,0,.7,0,1.4,0,2.1,0,.7,0,1.5,0,2.3,0,.8,0,1.6,0,2.4,0,.8,0,1.6,0,2.4,0,.8,0,1.5,0,2.3,0,.7,0,1.5,0,2.1,0,.7,0,1.3,0,1.9,0,1.2-.1,2.2-.2,2.9,0,.3,0,.6,0,.8,0,.2,0,.3,0,.3Z"/>
            <g>
              <path class="cls-5" d="M160,24.1s0,0,0,0c0,0,0-.2.2-.3.1-.2.3-.6.6-1,.1-.2.2-.4.4-.7.1-.2.3-.5.4-.7.2-.2.3-.5.5-.8.2-.3.3-.5.5-.8.2-.3.3-.5.5-.8.2-.3.3-.5.5-.8.2-.2.3-.5.5-.7.2-.2.3-.4.4-.6.3-.4.5-.7.7-.9.2-.2.3-.3.3-.3,0,0,0,.1-.2.4-.1.2-.3.6-.6,1-.1.2-.2.4-.4.7-.1.2-.3.5-.4.7-.2.2-.3.5-.5.8-.2.3-.3.5-.5.8-.2.3-.3.5-.5.8-.2.3-.3.5-.5.8-.2.2-.3.5-.5.7-.2.2-.3.4-.4.6-.3.4-.5.7-.7.9,0,.1-.2.2-.2.3,0,0,0,0,0,0Z"/>
              <path class="cls-5" d="M159.8,24s0,0,0-.1c0,0,0-.2-.2-.3-.1-.2-.3-.6-.6-1-.1-.2-.2-.4-.4-.7-.1-.2-.3-.5-.4-.7-.2-.2-.3-.5-.5-.8-.2-.3-.3-.5-.5-.8-.2-.3-.3-.5-.5-.8-.2-.3-.3-.5-.5-.8-.2-.2-.3-.5-.5-.7-.2-.2-.3-.4-.4-.6-.3-.4-.5-.7-.7-.9-.2-.2-.3-.3-.3-.3,0,0,0,.1.2.4.1.2.3.6.6,1,.1.2.2.4.4.7.1.2.3.5.4.7.2.2.3.5.5.8.2.3.3.5.5.8.2.3.3.5.5.8.2.3.3.5.5.8.2.2.3.5.5.7.2.2.3.4.4.6.3.4.5.7.7.9,0,.1.1.2.2.3,0,0,0,0,0,0Z"/>
            </g>
            <g>
              <path class="cls-5" d="M160,21.4s0,0,0,0c0,0,0-.2.2-.3.1-.2.3-.6.6-1,.1-.2.2-.4.4-.7.1-.2.3-.5.4-.7.2-.2.3-.5.5-.8.2-.3.3-.5.5-.8.2-.3.3-.5.5-.8.2-.3.3-.5.5-.8.2-.2.3-.5.5-.7.2-.2.3-.4.4-.6.3-.4.5-.7.7-.9.2-.2.3-.3.3-.3,0,0,0,.1-.2.4-.1.2-.3.6-.6,1-.1.2-.2.4-.4.7-.1.2-.3.5-.4.7-.2.2-.3.5-.5.8-.2.3-.3.5-.5.8-.2.3-.3.5-.5.8-.2.3-.3.5-.5.8-.2.2-.3.5-.5.7-.2.2-.3.4-.4.6-.3.4-.5.7-.7.9,0,.1-.2.2-.2.3,0,0,0,0,0,0Z"/>
              <path class="cls-5" d="M159.8,21.3s0,0,0,0c0,0,0-.2-.2-.3-.1-.2-.3-.6-.6-1-.1-.2-.2-.4-.4-.7-.1-.2-.3-.5-.4-.7-.2-.2-.3-.5-.5-.8-.2-.3-.3-.5-.5-.8-.2-.3-.3-.5-.5-.8-.2-.3-.3-.5-.5-.8-.2-.2-.3-.5-.5-.7-.2-.2-.3-.4-.4-.6-.3-.4-.5-.7-.7-.9-.2-.2-.3-.3-.3-.3,0,0,0,.1.2.4.1.2.3.6.6,1,.1.2.2.4.4.7.1.2.3.5.4.7.2.2.3.5.5.8.2.3.3.5.5.8.2.3.3.5.5.8.2.3.3.5.5.8.2.2.3.5.5.7.2.2.3.4.4.6.3.4.5.7.7.9,0,.1.1.2.2.3,0,0,0,0,0,0Z"/>
            </g>
            <g>
              <path class="cls-5" d="M164.2,11.5c-.1.2-.3.4-.5.7-.1.2-.2.3-.4.5-.1.2-.3.4-.4.6-.1.2-.3.4-.4.6-.1.2-.3.4-.4.6-.1.2-.3.4-.4.6-.1.2-.3.4-.4.6-.1.2-.2.4-.4.6-.1.2-.2.4-.3.5-.2.3-.3.6-.5.8,0,0,0,.2-.1.2,0,0,0,0,0,0,0,0,0,0,0,0,0,0,0-.1.2-.2.1-.2.3-.4.5-.7.1-.2.2-.3.4-.5.1-.2.3-.4.4-.6.1-.2.3-.4.4-.6.1-.2.3-.4.4-.6.1-.2.3-.4.4-.6.1-.2.3-.4.4-.6.1-.2.2-.4.4-.6.1-.2.2-.4.3-.5.2-.3.3-.6.5-.8.1-.2.2-.3.2-.3,0,0,0,.1-.2.3Z"/>
              <path class="cls-5" d="M159.7,17.7c-.1-.2-.3-.5-.5-.8,0-.2-.2-.3-.3-.5-.1-.2-.2-.4-.4-.6-.1-.2-.3-.4-.4-.6-.1-.2-.3-.4-.4-.6-.1-.2-.3-.4-.4-.6-.1-.2-.3-.4-.4-.6-.1-.2-.3-.4-.4-.6-.1-.2-.2-.4-.4-.5-.2-.3-.4-.6-.6-.7-.1-.2-.2-.3-.2-.3,0,0,0,.1.2.3.1.2.3.5.5.8,0,.2.2.3.3.5.1.2.2.4.4.6.1.2.3.4.4.6.1.2.3.4.4.6.1.2.3.4.4.6.1.2.3.4.4.6.1.2.3.4.4.6.1.2.2.4.4.5.2.3.4.6.5.7,0,0,.1.2.2.2,0,0,0,0,0,0,0,0,0,0,0,0,0,0,0-.1-.1-.2Z"/>
            </g>
            <g>
              <path class="cls-5" d="M163.4,8.9c-.1.1-.3.4-.5.6,0,.1-.2.3-.3.4-.1.1-.2.3-.3.5-.1.2-.2.3-.3.5-.1.2-.2.3-.3.5-.1.2-.2.4-.3.5-.1.2-.2.3-.3.5-.1.2-.2.3-.3.5,0,.2-.2.3-.3.4-.2.3-.3.5-.4.7,0,0,0,.1-.1.2,0,0,0,0,0,0,0,0,0,0,0,0,0,0,0,0,.1-.2.1-.1.3-.4.5-.6,0-.1.2-.3.3-.4.1-.1.2-.3.3-.5.1-.2.2-.3.3-.5.1-.2.2-.3.3-.5.1-.2.2-.4.3-.5.1-.2.2-.3.3-.5.1-.2.2-.3.3-.5,0-.2.2-.3.3-.4.2-.3.3-.5.4-.7,0-.2.1-.3.1-.3,0,0,0,0-.2.2Z"/>
              <path class="cls-5" d="M159.7,13.9c0-.2-.2-.4-.4-.7,0-.1-.2-.3-.3-.4,0-.2-.2-.3-.3-.5-.1-.2-.2-.3-.3-.5-.1-.2-.2-.4-.3-.5-.1-.2-.2-.4-.3-.5-.1-.2-.2-.3-.3-.5-.1-.2-.2-.3-.3-.5-.1-.1-.2-.3-.3-.4-.2-.3-.3-.5-.5-.6-.1-.1-.2-.2-.2-.2,0,0,0,0,.1.3,0,.2.2.4.4.7,0,.1.2.3.3.4,0,.2.2.3.3.5.1.2.2.3.3.5.1.2.2.4.3.5.1.2.2.4.3.5.1.2.2.3.3.5.1.2.2.3.3.5.1.1.2.3.3.4.2.3.3.5.5.6,0,0,.1.1.1.2,0,0,0,0,0,0,0,0,0,0,0,0,0,0,0-.1-.1-.2Z"/>
            </g>
            <g>
              <path class="cls-5" d="M162.7,6.8c0,.1-.2.3-.4.5,0,.1-.2.2-.2.3,0,.1-.2.2-.3.4,0,.1-.2.3-.3.4,0,.1-.2.3-.3.4,0,.1-.2.3-.3.4,0,.1-.2.3-.3.4,0,.1-.2.3-.2.4,0,.1-.1.2-.2.3-.1.2-.2.4-.3.5,0,0,0,.1,0,.1,0,0,0,0,0,0,0,0,0,0,0,0,0,0,0,0,.1-.1,0-.1.2-.3.4-.5,0-.1.2-.2.2-.3,0-.1.2-.2.3-.4,0-.1.2-.3.3-.4,0-.1.2-.3.3-.4,0-.1.2-.3.3-.4,0-.1.2-.3.3-.4,0-.1.2-.3.2-.4,0-.1.1-.2.2-.3.1-.2.2-.4.3-.5,0-.1.1-.2.1-.2,0,0,0,0-.1.2Z"/>
              <path class="cls-5" d="M159.7,10.8c0-.1-.2-.3-.3-.5,0-.1-.1-.2-.2-.3,0-.1-.2-.3-.2-.4,0-.1-.2-.3-.3-.4,0-.1-.2-.3-.3-.4,0-.1-.2-.3-.3-.4,0-.1-.2-.3-.3-.4,0-.1-.2-.3-.3-.4,0-.1-.2-.2-.2-.3-.1-.2-.3-.4-.4-.5,0-.1-.1-.2-.1-.2,0,0,0,0,.1.2,0,.1.2.3.3.5,0,.1.1.2.2.3,0,.1.2.3.2.4,0,.1.2.3.3.4,0,.1.2.3.3.4,0,.1.2.3.3.4,0,.1.2.3.3.4,0,.1.2.3.3.4,0,.1.2.2.2.3.1.2.3.4.4.5,0,0,0,.1.1.1,0,0,0,0,0,0,0,0,0,0,0,0,0,0,0,0,0-.1Z"/>
            </g>
            <g>
              <path class="cls-5" d="M162,4.6c0,0-.2.2-.3.4,0,0-.1.2-.2.3,0,0-.1.2-.2.3,0,0-.1.2-.2.3,0,.1-.1.2-.2.3,0,.1-.1.2-.2.3,0,.1-.1.2-.2.3,0,.1-.1.2-.2.3,0,0-.1.2-.2.3,0,.2-.2.3-.2.4,0,0,0,0,0,.1,0,0,0,0,0,0,0,0,0,0,0,0,0,0,0,0,0-.1,0,0,.2-.2.3-.4,0,0,.1-.2.2-.3,0,0,.1-.2.2-.3,0,0,.1-.2.2-.3,0-.1.1-.2.2-.3,0-.1.1-.2.2-.3,0-.1.1-.2.2-.3,0-.1.1-.2.2-.3,0,0,.1-.2.2-.3,0-.2.2-.3.2-.4,0,0,0-.2,0-.2,0,0,0,0-.1.1Z"/>
              <path class="cls-5" d="M159.8,7.6c0,0-.1-.2-.2-.4,0,0,0-.2-.2-.3,0,0-.1-.2-.2-.3,0-.1-.1-.2-.2-.3,0-.1-.1-.2-.2-.3,0-.1-.1-.2-.2-.3,0-.1-.1-.2-.2-.3,0,0-.1-.2-.2-.3,0,0-.1-.2-.2-.3-.1-.2-.2-.3-.3-.4,0,0-.1-.1-.1-.1,0,0,0,0,0,.2,0,0,.1.2.2.4,0,0,.1.2.2.3,0,0,.1.2.2.3,0,.1.1.2.2.3,0,.1.1.2.2.3,0,.1.1.2.2.3,0,.1.1.2.2.3,0,0,.1.2.2.3,0,0,.1.2.2.3.1.2.2.3.3.4,0,0,0,0,0,.1,0,0,0,0,0,0,0,0,0,0,0,0,0,0,0,0,0-.1Z"/>
            </g>
            <g>
              <path class="cls-5" d="M161.4,2.7c0,0-.1.2-.2.3,0,0,0,.1-.1.2,0,0,0,.1-.1.2,0,0,0,.1-.1.2,0,0,0,.2-.1.2,0,0,0,.2-.1.2,0,0,0,.2-.1.2,0,0,0,.1-.1.2,0,0,0,.1-.1.2,0,.1-.1.2-.2.3,0,0,0,0,0,0,0,0,0,0,0,0,0,0,0,0,0,0,0,0,0,0,0,0,0,0,.1-.2.2-.3,0,0,0-.1.1-.2,0,0,0-.1.1-.2,0,0,0-.1.1-.2,0,0,0-.2.1-.2,0,0,0-.2.1-.2,0,0,0-.2.1-.2,0,0,0-.1.1-.2,0,0,0-.1.1-.2,0-.1.1-.2.2-.3,0,0,0-.1,0-.1,0,0,0,0,0,0Z"/>
              <path class="cls-5" d="M159.8,4.9c0,0,0-.2-.2-.3,0,0,0-.1-.1-.2,0,0,0-.1-.1-.2,0,0,0-.1-.1-.2,0,0,0-.2-.1-.2,0,0,0-.2-.1-.2,0,0,0-.1-.1-.2,0,0,0-.1-.1-.2,0,0,0-.1-.1-.2,0-.1-.1-.2-.2-.3,0,0,0,0,0,0,0,0,0,0,0,.1,0,0,0,.2.2.3,0,0,0,.1.1.2,0,0,0,.1.1.2,0,0,0,.1.1.2,0,0,0,.2.1.2,0,0,0,.2.1.2,0,0,0,.1.1.2,0,0,0,.1.1.2,0,0,0,.1.1.2,0,.1.1.2.2.3,0,0,0,0,0,0,0,0,0,0,0,0,0,0,0,0,0,0,0,0,0,0,0,0Z"/>
            </g>
          </g>
          <g>
            <path class="cls-10" d="M182.8,19.1c-5.4,5.4-14.5,5-14.5,5,0,0-.3-9.1,5-14.5,5.4-5.4,14.5-5,14.5-5,0,0,.3,9.1-5,14.5Z"/>
            <path class="cls-10" d="M182.8,19.1c-5.4,5.4-14.5,5-14.5,5,0,0-.3-9.1,5-14.5,5.4-5.4,14.5-5,14.5-5,0,0,.3,9.1-5,14.5Z"/>
            <path class="cls-3" d="M185.4,6.6c-3.3,1.6-5.9,3.9-8,7-1.2,1.7-2.3,4.9-.8,6.8,1.5,1.9,4.8-1,5.9-2,4.3-4.3,4.6-11,4.6-12.7,0,.1-.9.6-1.7.9Z"/>
            <path class="cls-4" d="M173.2,23.7c-1.5-1.8-2.3-4.5-1.4-6.8,1.4-3.6,4.2-6.2,7.3-8.4,2.6-1.8,5.6-3.3,8.8-3.8,0,0,0,0,0,0,0,0-9.1-.3-14.5,5-5.4,5.4-5,14.5-5,14.5,0,0,2.1,0,4.9-.4,0,0,0,0,0,0Z"/>
            <path class="cls-3" d="M186.9,5s-20.4,9.4-12.4,18.5l2.2-.6s-9.2-6.7,10.1-17.8Z"/>
            <path class="cls-5" d="M168.3,24.2s0,0,.2-.2c.1-.1.3-.4.5-.6.5-.5,1.1-1.3,1.9-2.1.4-.4.8-.9,1.3-1.4.5-.5.9-1,1.5-1.6.5-.5,1-1.1,1.6-1.6.5-.6,1.1-1.1,1.7-1.7.6-.6,1.1-1.1,1.7-1.7.5-.5,1.1-1.1,1.6-1.6.5-.5,1.1-1,1.6-1.5.5-.5,1-.9,1.4-1.3.9-.8,1.6-1.5,2.1-1.9.5-.5.8-.7.8-.7,0,0-.3.3-.7.8-.5.5-1.1,1.3-1.9,2.1-.4.4-.8.9-1.3,1.4-.5.5-.9,1-1.5,1.6-.5.5-1,1.1-1.6,1.6-.5.6-1.1,1.1-1.7,1.7-.6.6-1.1,1.1-1.7,1.7-.6.5-1.1,1.1-1.6,1.6-.5.5-1.1,1-1.6,1.5-.5.5-1,.9-1.4,1.3-.9.8-1.6,1.5-2.1,1.9-.3.2-.5.4-.6.5-.1.1-.2.2-.2.2Z"/>
            <g>
              <path class="cls-5" d="M170.8,21.7s0,0,.1,0c0,0,.2,0,.3,0,.3,0,.6-.2,1.1-.3.2,0,.5-.1.7-.2.3,0,.5-.1.8-.2.3,0,.6-.1.9-.2.3,0,.6-.1.9-.2.3,0,.6-.1.9-.2.3,0,.6-.1.9-.2.3,0,.6-.1.8-.2.3,0,.5,0,.8-.1.5,0,.9-.1,1.1-.2.3,0,.4,0,.4,0,0,0-.2,0-.4.1-.3,0-.6.2-1.1.3-.2,0-.5.1-.7.2-.3,0-.5.1-.8.2-.3,0-.6.1-.9.2-.3,0-.6.1-.9.2-.3,0-.6.1-.9.2-.3,0-.6.1-.9.2-.3,0-.6.1-.8.2-.3,0-.5,0-.7.1-.5,0-.9.1-1.1.2-.1,0-.2,0-.3,0,0,0-.1,0-.1,0Z"/>
              <path class="cls-5" d="M170.8,21.5s0,0,0-.1c0,0,0-.2,0-.3,0-.3.2-.6.3-1.1,0-.2.1-.5.2-.7,0-.3.1-.5.2-.8,0-.3.1-.6.2-.9,0-.3.1-.6.2-.9,0-.3.1-.6.2-.9,0-.3.1-.6.2-.9,0-.3.1-.6.2-.8,0-.3,0-.5.1-.8,0-.5.1-.9.2-1.1,0-.3,0-.4,0-.4,0,0,0,.2-.1.4,0,.3-.2.6-.3,1.1,0,.2-.1.5-.2.7,0,.3-.1.5-.2.8,0,.3-.1.6-.2.9,0,.3-.1.6-.2.9,0,.3-.1.6-.2.9,0,.3-.1.6-.2.9,0,.3-.1.6-.2.8,0,.3,0,.5-.1.7,0,.5-.1.9-.2,1.1,0,.1,0,.2,0,.3,0,0,0,.1,0,.1Z"/>
            </g>
            <g>
              <path class="cls-5" d="M172.7,19.8s0,0,.1,0c0,0,.2,0,.3,0,.3,0,.6-.2,1.1-.3.2,0,.5-.1.7-.2.3,0,.5-.1.8-.2.3,0,.6-.1.9-.2.3,0,.6-.1.9-.2.3,0,.6-.1.9-.2.3,0,.6-.1.9-.2.3,0,.6-.1.8-.2.3,0,.5,0,.7-.1.5,0,.9-.1,1.1-.2.3,0,.4,0,.4,0,0,0-.2,0-.4.1-.3,0-.6.2-1.1.3-.2,0-.5.1-.7.2-.3,0-.5.1-.8.2-.3,0-.6.1-.9.2-.3,0-.6.1-.9.2-.3,0-.6.1-.9.2-.3,0-.6.1-.9.2-.3,0-.6.1-.8.2-.3,0-.5,0-.7.1-.5,0-.9.1-1.1.2-.1,0-.2,0-.3,0,0,0-.1,0-.1,0Z"/>
              <path class="cls-5" d="M172.7,19.6s0,0,0-.1c0,0,0-.2,0-.3,0-.3.2-.6.3-1.1,0-.2.1-.5.2-.7,0-.3.1-.5.2-.8,0-.3.1-.6.2-.9,0-.3.1-.6.2-.9,0-.3.1-.6.2-.9,0-.3.1-.6.2-.9,0-.3.1-.6.2-.8,0-.3,0-.5.1-.8,0-.5.1-.9.2-1.1,0-.3,0-.4,0-.4,0,0,0,.2-.1.4,0,.3-.2.6-.3,1.1,0,.2-.1.5-.2.7,0,.3-.1.5-.2.8,0,.3-.1.6-.2.9,0,.3-.1.6-.2.9,0,.3-.1.6-.2.9,0,.3-.1.6-.2.9,0,.3-.1.6-.2.8,0,.3,0,.5-.1.7,0,.5-.1.9-.2,1.1,0,.1,0,.2,0,.3,0,0,0,.1,0,.1Z"/>
            </g>
            <g>
              <path class="cls-5" d="M182.7,15.8c-.2,0-.5,0-.9.1-.2,0-.4,0-.6.1-.2,0-.4,0-.7.1-.2,0-.5,0-.7.1-.2,0-.5.1-.7.2-.2,0-.5.1-.7.2-.2,0-.5.1-.7.2-.2,0-.5.1-.7.2-.2,0-.4.1-.6.2-.4,0-.7.2-.9.2-.1,0-.2,0-.2,0,0,0,0,0,0,0,0,0,0,0,0,0,0,0,.1,0,.3,0,.2,0,.5,0,.9-.1.2,0,.4,0,.6-.1.2,0,.4,0,.7-.1.2,0,.5,0,.7-.1.2,0,.5-.1.7-.2.2,0,.5-.1.7-.2.2,0,.5-.1.7-.2.2,0,.5-.1.7-.2.2,0,.4-.1.6-.2.4,0,.7-.2.9-.2.2,0,.3-.1.3-.1,0,0-.1,0-.4,0Z"/>
              <path class="cls-5" d="M175.1,16.9c0-.2.2-.5.2-.9,0-.2.1-.4.2-.6,0-.2.1-.4.2-.7,0-.2.1-.5.2-.7,0-.2.1-.5.2-.7,0-.3.1-.5.2-.7,0-.2,0-.5.1-.7,0-.2,0-.5.1-.7,0-.2,0-.4.1-.6,0-.4.1-.7.1-.9,0-.2,0-.4,0-.4,0,0,0,.1-.1.3,0,.2-.2.5-.2.9,0,.2-.1.4-.2.6,0,.2-.1.4-.2.7,0,.2-.1.5-.2.7,0,.2-.1.5-.2.7,0,.3-.1.5-.2.7,0,.2,0,.5-.1.7,0,.2,0,.5-.1.7,0,.2,0,.4-.1.6,0,.4-.1.7-.1.9,0,.1,0,.2,0,.3,0,0,0,0,0,0,0,0,0,0,0,0,0,0,0-.1,0-.2Z"/>
            </g>
            <g>
              <path class="cls-5" d="M184,13.4c-.2,0-.4,0-.8.1-.2,0-.3,0-.5,0-.2,0-.4,0-.6.1-.2,0-.4,0-.6.1-.2,0-.4,0-.6.1-.2,0-.4,0-.6.1-.2,0-.4,0-.6.1-.2,0-.4,0-.6.1-.2,0-.3,0-.5.1-.3,0-.6.2-.7.2,0,0-.2,0-.2,0,0,0,0,0,0,0,0,0,0,0,0,0,0,0,.1,0,.2,0,.2,0,.4,0,.8-.1.2,0,.3,0,.5,0,.2,0,.4,0,.6-.1.2,0,.4,0,.6-.1.2,0,.4,0,.6-.1.2,0,.4,0,.6-.1.2,0,.4,0,.6-.1.2,0,.4,0,.6-.1.2,0,.3,0,.5-.1.3,0,.6-.2.7-.2.2,0,.3,0,.3,0,0,0-.1,0-.3,0Z"/>
              <path class="cls-5" d="M177.8,14.3c0-.2.1-.4.2-.7,0-.2,0-.3.1-.5,0-.2,0-.4.1-.6,0-.2,0-.4.1-.6,0-.2,0-.4.1-.6,0-.2,0-.4.1-.6,0-.2,0-.4.1-.6,0-.2,0-.4.1-.6,0-.2,0-.3,0-.5,0-.3,0-.6.1-.8,0-.2,0-.3,0-.3,0,0,0,.1,0,.3,0,.2-.1.4-.2.7,0,.2,0,.3-.1.5,0,.2,0,.4-.1.6,0,.2,0,.4-.1.6,0,.2,0,.4-.1.6,0,.2,0,.4-.1.6,0,.2,0,.4-.1.6,0,.2,0,.4-.1.6,0,.2,0,.3,0,.5,0,.3,0,.6-.1.8,0,0,0,.2,0,.2,0,0,0,0,0,0,0,0,0,0,0,0,0,0,0-.1,0-.2Z"/>
            </g>
            <g>
              <path class="cls-5" d="M185,11.4c-.1,0-.4,0-.6,0-.1,0-.3,0-.4,0-.1,0-.3,0-.4,0-.2,0-.3,0-.5,0-.2,0-.3,0-.5.1-.2,0-.3,0-.5.1-.2,0-.3,0-.5.1-.2,0-.3,0-.4.1-.1,0-.3,0-.4.1-.2,0-.4.1-.6.2,0,0-.1,0-.2,0,0,0,0,0,0,0,0,0,0,0,0,0,0,0,0,0,.2,0,.1,0,.4,0,.6,0,.1,0,.3,0,.4,0,.1,0,.3,0,.4,0,.2,0,.3,0,.5,0,.2,0,.3,0,.5-.1.2,0,.3,0,.5-.1.2,0,.3,0,.5-.1.2,0,.3,0,.4-.1.1,0,.3,0,.4-.1.2,0,.4-.1.6-.2.1,0,.2,0,.2,0,0,0,0,0-.2,0Z"/>
              <path class="cls-5" d="M180,12.1c0-.1,0-.3.2-.6,0-.1,0-.3.1-.4,0-.1,0-.3.1-.4,0-.2,0-.3.1-.5,0-.2,0-.3.1-.5,0-.2,0-.3.1-.5,0-.2,0-.3,0-.5,0-.2,0-.3,0-.4,0-.1,0-.3,0-.4,0-.2,0-.5,0-.6,0-.1,0-.2,0-.2,0,0,0,0,0,.2,0,.1,0,.3-.2.6,0,.1,0,.3-.1.4,0,.1,0,.3-.1.4,0,.2,0,.3-.1.5,0,.2,0,.3-.1.5,0,.2,0,.3-.1.5,0,.2,0,.3,0,.5,0,.2,0,.3,0,.4,0,.1,0,.3,0,.4,0,.2,0,.5,0,.6,0,0,0,.1,0,.2,0,0,0,0,0,0,0,0,0,0,0,0,0,0,0,0,0-.2Z"/>
            </g>
            <g>
              <path class="cls-5" d="M186.1,9.3c-.1,0-.3,0-.5,0,0,0-.2,0-.3,0-.1,0-.2,0-.3,0-.1,0-.2,0-.4,0-.1,0-.2,0-.4,0-.1,0-.2,0-.4,0-.1,0-.2,0-.4,0-.1,0-.2,0-.3,0-.1,0-.2,0-.3,0-.2,0-.3,0-.4.1,0,0,0,0-.1,0,0,0,0,0,0,0,0,0,0,0,0,0,0,0,0,0,.1,0,.1,0,.3,0,.5,0,0,0,.2,0,.3,0,.1,0,.2,0,.3,0,.1,0,.2,0,.4,0,.1,0,.2,0,.4,0,.1,0,.2,0,.4,0,.1,0,.2,0,.4,0,.1,0,.2,0,.3,0,.1,0,.2,0,.3,0,.2,0,.3,0,.4-.1.1,0,.2,0,.2,0,0,0,0,0-.2,0Z"/>
              <path class="cls-5" d="M182.3,9.9c0-.1,0-.3.1-.4,0,0,0-.2,0-.3,0-.1,0-.2,0-.3,0-.1,0-.2,0-.4,0-.1,0-.2,0-.4,0-.1,0-.2,0-.4,0-.1,0-.2,0-.4,0-.1,0-.2,0-.3,0-.1,0-.2,0-.3,0-.2,0-.3,0-.5,0-.1,0-.2,0-.2,0,0,0,0,0,.2,0,.1,0,.3-.1.4,0,0,0,.2,0,.3,0,.1,0,.2,0,.3,0,.1,0,.2,0,.4,0,.1,0,.2,0,.4,0,.1,0,.2,0,.4,0,.1,0,.2,0,.4,0,.1,0,.2,0,.3,0,.1,0,.2,0,.3,0,.2,0,.3,0,.5,0,0,0,0,0,.1,0,0,0,0,0,0,0,0,0,0,0,0,0,0,0,0,0-.1Z"/>
            </g>
            <g>
              <path class="cls-5" d="M187,7.6c0,0-.2,0-.3,0,0,0-.1,0-.2,0,0,0-.2,0-.2,0,0,0-.2,0-.3,0,0,0-.2,0-.3,0,0,0-.2,0-.3,0,0,0-.2,0-.3,0,0,0-.2,0-.2,0,0,0-.1,0-.2,0-.1,0-.2,0-.3,0,0,0,0,0,0,0,0,0,0,0,0,0,0,0,0,0,0,0,0,0,0,0,0,0,0,0,.2,0,.3,0,0,0,.1,0,.2,0,0,0,.2,0,.2,0,0,0,.2,0,.3,0,0,0,.2,0,.3,0,0,0,.2,0,.3,0,0,0,.2,0,.3,0,0,0,.2,0,.2,0,0,0,.1,0,.2,0,.1,0,.2,0,.3,0,0,0,.1,0,.1,0,0,0,0,0-.1,0Z"/>
              <path class="cls-5" d="M184.3,8c0,0,0-.2,0-.3,0,0,0-.1,0-.2,0,0,0-.2,0-.2,0,0,0-.2,0-.3,0,0,0-.2,0-.3,0,0,0-.2,0-.3,0,0,0-.2,0-.3,0,0,0-.2,0-.2,0,0,0-.1,0-.2,0-.1,0-.2,0-.3,0,0,0-.1,0-.1,0,0,0,0,0,.1,0,0,0,.2,0,.3,0,0,0,.1,0,.2,0,0,0,.2,0,.2,0,0,0,.2,0,.3,0,0,0,.2,0,.3,0,0,0,.2,0,.3,0,0,0,.2,0,.3,0,0,0,.2,0,.2,0,0,0,.1,0,.2,0,.1,0,.2,0,.3,0,0,0,0,0,0,0,0,0,0,0,0,0,0,0,0,0,0,0,0,0,0,0,0Z"/>
            </g>
          </g>
          <g>
            <path class="cls-10" d="M139.1,27c5.4,5.4,14.5,5,14.5,5,0,0,.3-9.1-5-14.5-5.4-5.4-14.5-5-14.5-5,0,0-.3,9.1,5,14.5Z"/>
            <path class="cls-10" d="M139.1,27c5.4,5.4,14.5,5,14.5,5,0,0,.3-9.1-5-14.5-5.4-5.4-14.5-5-14.5-5,0,0-.3,9.1,5,14.5Z"/>
            <path class="cls-3" d="M136.4,14.4c3.3,1.6,5.9,3.9,8,7,1.2,1.7,2.3,4.9.8,6.8-1.5,1.9-4.8-1-5.9-2-4.3-4.3-4.6-11-4.6-12.7,0,.1.9.6,1.7.9Z"/>
            <path class="cls-4" d="M148.7,31.5c1.5-1.8,2.3-4.5,1.4-6.8-1.4-3.6-4.2-6.2-7.3-8.4-2.6-1.8-5.6-3.3-8.8-3.8,0,0,0,0,0,0,0,0,9.1-.3,14.5,5,5.4,5.4,5,14.5,5,14.5,0,0-2.1,0-4.9-.4,0,0,0,0,0,0Z"/>
            <path class="cls-3" d="M134.9,12.8s20.4,9.4,12.4,18.5l-2.2-.6s9.2-6.7-10.1-17.8Z"/>
            <path class="cls-5" d="M153.5,32s0,0-.2-.2c-.1-.1-.3-.4-.5-.6-.5-.5-1.1-1.3-1.9-2.1-.4-.4-.8-.9-1.3-1.4-.5-.5-.9-1-1.5-1.6-.5-.5-1-1.1-1.6-1.6-.5-.6-1.1-1.1-1.7-1.7-.6-.6-1.1-1.1-1.7-1.7-.5-.5-1.1-1.1-1.6-1.6-.5-.5-1.1-1-1.6-1.5-.5-.5-1-.9-1.4-1.3-.9-.8-1.6-1.5-2.1-1.9-.5-.5-.8-.7-.8-.7,0,0,.3.3.7.8.5.5,1.1,1.3,1.9,2.1.4.4.8.9,1.3,1.4.5.5.9,1,1.5,1.6.5.5,1,1.1,1.6,1.6.5.6,1.1,1.1,1.7,1.7.6.6,1.1,1.1,1.7,1.7.6.5,1.1,1.1,1.6,1.6.5.5,1.1,1,1.6,1.5.5.5,1,.9,1.4,1.3.9.8,1.6,1.5,2.1,1.9.3.2.5.4.6.5.1.1.2.2.2.2Z"/>
            <g>
              <path class="cls-5" d="M151.1,29.5s0,0-.1,0c0,0-.2,0-.3,0-.3,0-.6-.2-1.1-.3-.2,0-.5-.1-.7-.2-.3,0-.5-.1-.8-.2-.3,0-.6-.1-.9-.2-.3,0-.6-.1-.9-.2-.3,0-.6-.1-.9-.2-.3,0-.6-.1-.9-.2-.3,0-.6-.1-.8-.2-.3,0-.5,0-.7-.1-.5,0-.9-.1-1.1-.2-.3,0-.4,0-.4,0,0,0,.2,0,.4.1.3,0,.6.2,1.1.3.2,0,.5.1.7.2.3,0,.5.1.8.2.3,0,.6.1.9.2.3,0,.6.1.9.2.3,0,.6.1.9.2.3,0,.6.1.9.2.3,0,.6.1.8.2.3,0,.5,0,.7.1.5,0,.9.1,1.1.2.1,0,.2,0,.3,0,0,0,.1,0,.1,0Z"/>
              <path class="cls-5" d="M151.1,29.3s0,0,0-.1c0,0,0-.2,0-.3,0-.3-.2-.6-.3-1.1,0-.2-.1-.5-.2-.7,0-.3-.1-.5-.2-.8,0-.3-.1-.6-.2-.9,0-.3-.1-.6-.2-.9,0-.3-.1-.6-.2-.9,0-.3-.1-.6-.2-.9,0-.3-.1-.6-.2-.8,0-.3,0-.5-.1-.8,0-.5-.1-.9-.2-1.1,0-.3,0-.4,0-.4,0,0,0,.2.1.4,0,.3.2.6.3,1.1,0,.2.1.5.2.7,0,.3.1.5.2.8,0,.3.1.6.2.9,0,.3.1.6.2.9,0,.3.1.6.2.9,0,.3.1.6.2.9,0,.3.1.6.2.8,0,.3,0,.5.1.7,0,.5.1.9.2,1.1,0,.1,0,.2,0,.3,0,0,0,.1,0,.1Z"/>
            </g>
            <g>
              <path class="cls-5" d="M149.2,27.6s0,0-.1,0c0,0-.2,0-.3,0-.3,0-.6-.2-1.1-.3-.2,0-.5-.1-.7-.2-.3,0-.5-.1-.8-.2-.3,0-.6-.1-.9-.2-.3,0-.6-.1-.9-.2-.3,0-.6-.1-.9-.2-.3,0-.6-.1-.9-.2-.3,0-.6-.1-.8-.2-.3,0-.5,0-.7-.1-.5,0-.9-.1-1.1-.2-.3,0-.4,0-.4,0,0,0,.2,0,.4.1.3,0,.6.2,1.1.3.2,0,.5.1.7.2.3,0,.5.1.8.2.3,0,.6.1.9.2.3,0,.6.1.9.2.3,0,.6.1.9.2.3,0,.6.1.9.2.3,0,.6.1.8.2.3,0,.5,0,.7.1.5,0,.9.1,1.1.2.1,0,.2,0,.3,0,0,0,.1,0,.1,0Z"/>
              <path class="cls-5" d="M149.2,27.4s0,0,0-.1c0,0,0-.2,0-.3,0-.3-.2-.6-.3-1.1,0-.2-.1-.5-.2-.7,0-.3-.1-.5-.2-.8,0-.3-.1-.6-.2-.9,0-.3-.1-.6-.2-.9,0-.3-.1-.6-.2-.9,0-.3-.1-.6-.2-.9,0-.3-.1-.6-.2-.8,0-.3,0-.5-.1-.8,0-.5-.1-.9-.2-1.1,0-.3,0-.4,0-.4,0,0,0,.2.1.4,0,.3.2.6.3,1.1,0,.2.1.5.2.7,0,.3.1.5.2.8,0,.3.1.6.2.9,0,.3.1.6.2.9,0,.3.1.6.2.9,0,.3.1.6.2.9,0,.3.1.6.2.8,0,.3,0,.5.1.7,0,.5.1.9.2,1.1,0,.1,0,.2,0,.3,0,0,0,.1,0,.1Z"/>
            </g>
            <g>
              <path class="cls-5" d="M139.2,23.6c.2,0,.5,0,.9.1.2,0,.4,0,.6.1.2,0,.4,0,.7.1.2,0,.5,0,.7.1.2,0,.5.1.7.2.2,0,.5.1.7.2.2,0,.5.1.7.2.2,0,.5.1.7.2.2,0,.4.1.6.2.4,0,.7.2.9.2.1,0,.2,0,.2,0,0,0,0,0,0,0,0,0,0,0,0,0,0,0-.1,0-.3,0-.2,0-.5,0-.9-.1-.2,0-.4,0-.6-.1-.2,0-.4,0-.7-.1-.2,0-.5,0-.7-.1-.2,0-.5-.1-.7-.2-.2,0-.5-.1-.7-.2-.2,0-.5-.1-.7-.2-.2,0-.5-.1-.7-.2-.2,0-.4-.1-.6-.2-.4,0-.7-.2-.9-.2-.2,0-.3-.1-.3-.1,0,0,.1,0,.4,0Z"/>
              <path class="cls-5" d="M146.7,24.7c0-.2-.2-.5-.2-.9,0-.2-.1-.4-.2-.6,0-.2-.1-.4-.2-.7,0-.2-.1-.5-.2-.7,0-.2-.1-.5-.2-.7,0-.3-.1-.5-.2-.7,0-.2,0-.5-.1-.7,0-.2,0-.5-.1-.7,0-.2,0-.4-.1-.6,0-.4-.1-.7-.1-.9,0-.2,0-.4,0-.4,0,0,0,.1.1.3,0,.2.2.5.2.9,0,.2.1.4.2.6,0,.2.1.4.2.7,0,.2.1.5.2.7,0,.2.1.5.2.7,0,.3.1.5.2.7,0,.2,0,.5.1.7,0,.2,0,.5.1.7,0,.2,0,.4.1.6,0,.4.1.7.1.9,0,.1,0,.2,0,.3,0,0,0,0,0,0,0,0,0,0,0,0,0,0,0-.1,0-.2Z"/>
            </g>
            <g>
              <path class="cls-5" d="M137.8,21.2c.2,0,.4,0,.8.1.2,0,.3,0,.5,0,.2,0,.4,0,.6.1.2,0,.4,0,.6.1.2,0,.4,0,.6.1.2,0,.4,0,.6.1.2,0,.4,0,.6.1.2,0,.4,0,.6.1.2,0,.3,0,.5.1.3,0,.6.2.7.2,0,0,.2,0,.2,0,0,0,0,0,0,0,0,0,0,0,0,0,0,0-.1,0-.2,0-.2,0-.4,0-.8-.1-.2,0-.3,0-.5,0-.2,0-.4,0-.6-.1-.2,0-.4,0-.6-.1-.2,0-.4,0-.6-.1-.2,0-.4,0-.6-.1-.2,0-.4,0-.6-.1-.2,0-.4,0-.6-.1-.2,0-.3,0-.5-.1-.3,0-.6-.2-.7-.2-.2,0-.3,0-.3,0,0,0,.1,0,.3,0Z"/>
              <path class="cls-5" d="M144.1,22.1c0-.2-.1-.4-.2-.7,0-.2,0-.3-.1-.5,0-.2,0-.4-.1-.6,0-.2,0-.4-.1-.6,0-.2,0-.4-.1-.6,0-.2,0-.4-.1-.6,0-.2,0-.4-.1-.6,0-.2,0-.4-.1-.6,0-.2,0-.3,0-.5,0-.3,0-.6-.1-.8,0-.2,0-.3,0-.3,0,0,0,.1,0,.3,0,.2.1.4.2.7,0,.2,0,.3.1.5,0,.2,0,.4.1.6,0,.2,0,.4.1.6,0,.2,0,.4.1.6,0,.2,0,.4.1.6,0,.2,0,.4.1.6,0,.2,0,.4.1.6,0,.2,0,.3,0,.5,0,.3,0,.6.1.8,0,0,0,.2,0,.2,0,0,0,0,0,0,0,0,0,0,0,0,0,0,0-.1,0-.2Z"/>
            </g>
            <g>
              <path class="cls-5" d="M136.9,19.2c.1,0,.4,0,.6,0,.1,0,.3,0,.4,0,.1,0,.3,0,.4,0,.2,0,.3,0,.5,0,.2,0,.3,0,.5.1.2,0,.3,0,.5.1.2,0,.3,0,.5.1.2,0,.3,0,.4.1.1,0,.3,0,.4.1.2,0,.4.1.6.2,0,0,.1,0,.2,0,0,0,0,0,0,0,0,0,0,0,0,0,0,0,0,0-.2,0-.1,0-.4,0-.6,0-.1,0-.3,0-.4,0-.1,0-.3,0-.4,0-.2,0-.3,0-.5,0-.2,0-.3,0-.5-.1-.2,0-.3,0-.5-.1-.2,0-.3,0-.5-.1-.2,0-.3,0-.4-.1-.1,0-.3,0-.4-.1-.2,0-.4-.1-.6-.2-.1,0-.2,0-.2,0,0,0,0,0,.2,0Z"/>
              <path class="cls-5" d="M141.9,20c0-.1,0-.3-.2-.6,0-.1,0-.3-.1-.4,0-.1,0-.3-.1-.4,0-.2,0-.3-.1-.5,0-.2,0-.3-.1-.5,0-.2,0-.3-.1-.5,0-.2,0-.3,0-.5,0-.2,0-.3,0-.4,0-.1,0-.3,0-.4,0-.2,0-.5,0-.6,0-.1,0-.2,0-.2,0,0,0,0,0,.2,0,.1,0,.3.2.6,0,.1,0,.3.1.4,0,.1,0,.3.1.4,0,.2,0,.3.1.5,0,.2,0,.3.1.5,0,.2,0,.3.1.5,0,.2,0,.3,0,.5,0,.2,0,.3,0,.4,0,.1,0,.3,0,.4,0,.2,0,.5,0,.6,0,0,0,.1,0,.2,0,0,0,0,0,0,0,0,0,0,0,0,0,0,0,0,0-.2Z"/>
            </g>
            <g>
              <path class="cls-5" d="M135.8,17.2c.1,0,.3,0,.5,0,0,0,.2,0,.3,0,.1,0,.2,0,.3,0,.1,0,.2,0,.4,0,.1,0,.2,0,.4,0,.1,0,.2,0,.4,0,.1,0,.2,0,.4,0,.1,0,.2,0,.3,0,.1,0,.2,0,.3,0,.2,0,.3,0,.4.1,0,0,0,0,.1,0,0,0,0,0,0,0,0,0,0,0,0,0,0,0,0,0-.1,0-.1,0-.3,0-.5,0,0,0-.2,0-.3,0-.1,0-.2,0-.3,0-.1,0-.2,0-.4,0-.1,0-.2,0-.4,0-.1,0-.2,0-.4,0-.1,0-.2,0-.4,0-.1,0-.2,0-.3,0-.1,0-.2,0-.3,0-.2,0-.3,0-.4-.1-.1,0-.2,0-.2,0,0,0,0,0,.2,0Z"/>
              <path class="cls-5" d="M139.6,17.7c0-.1,0-.3-.1-.4,0,0,0-.2,0-.3,0-.1,0-.2,0-.3,0-.1,0-.2,0-.4,0-.1,0-.2,0-.4,0-.1,0-.2,0-.4,0-.1,0-.2,0-.4,0-.1,0-.2,0-.3,0-.1,0-.2,0-.3,0-.2,0-.3,0-.5,0-.1,0-.2,0-.2,0,0,0,0,0,.2,0,.1,0,.3.1.4,0,0,0,.2,0,.3,0,.1,0,.2,0,.3,0,.1,0,.2,0,.4,0,.1,0,.2,0,.4,0,.1,0,.2,0,.4,0,.1,0,.2,0,.4,0,.1,0,.2,0,.3,0,.1,0,.2,0,.3,0,.2,0,.3,0,.5,0,0,0,0,0,.1,0,0,0,0,0,0,0,0,0,0,0,0,0,0,0,0,0-.1Z"/>
            </g>
            <g>
              <path class="cls-5" d="M134.9,15.4c0,0,.2,0,.3,0,0,0,.1,0,.2,0,0,0,.2,0,.2,0,0,0,.2,0,.3,0,0,0,.2,0,.3,0,0,0,.2,0,.3,0,0,0,.2,0,.3,0,0,0,.2,0,.2,0,0,0,.1,0,.2,0,.1,0,.2,0,.3,0,0,0,0,0,0,0,0,0,0,0,0,0,0,0,0,0,0,0,0,0,0,0,0,0,0,0-.2,0-.3,0,0,0-.1,0-.2,0,0,0-.2,0-.2,0,0,0-.2,0-.3,0,0,0-.2,0-.3,0,0,0-.2,0-.3,0,0,0-.2,0-.3,0,0,0-.2,0-.2,0,0,0-.1,0-.2,0-.1,0-.2,0-.3,0,0,0-.1,0-.1,0,0,0,0,0,.1,0Z"/>
              <path class="cls-5" d="M137.6,15.8c0,0,0-.2,0-.3,0,0,0-.1,0-.2,0,0,0-.2,0-.2,0,0,0-.2,0-.3,0,0,0-.2,0-.3,0,0,0-.2,0-.3,0,0,0-.2,0-.3,0,0,0-.2,0-.2,0,0,0-.1,0-.2,0-.1,0-.2,0-.3,0,0,0-.1,0-.1,0,0,0,0,0,.1,0,0,0,.2,0,.3,0,0,0,.1,0,.2,0,0,0,.2,0,.2,0,0,0,.2,0,.3,0,0,0,.2,0,.3,0,0,0,.2,0,.3,0,0,0,.2,0,.3,0,0,0,.2,0,.2,0,0,0,.1,0,.2,0,.1,0,.2,0,.3,0,0,0,0,0,0,0,0,0,0,0,0,0,0,0,0,0,0,0,0,0,0,0,0Z"/>
            </g>
          </g>
        </g>
        <path class="cls-6" d="M155.4,50.5"/>
        <g class="cls-7">
          <line class="cls-9" x1="160.9" y1="30.9" x2="160.9" y2="83.9"/>
          <line class="cls-8" x1="157.9" y1="32.4" x2="157.9" y2="79.6"/>
          <line class="cls-9" x1="154.9" y1="44.4" x2="154.9" y2="49.9"/>
          <line class="cls-9" x1="166.9" y1="43.9" x2="166.9" y2="49.9"/>
          <line class="cls-8" x1="163.9" y1="28.4" x2="163.9" y2="86.4"/>
          <line class="cls-8" x1="169.9" y1="44.4" x2="169.9" y2="49.4"/>
          <line class="cls-8" x1="151.9" y1="44.4" x2="151.9" y2="49.4"/>
          <line class="cls-9" x1="166.9" y1="73.9" x2="166.9" y2="88.9"/>
          <line class="cls-8" x1="169.9" y1="78.4" x2="169.9" y2="89.4"/>
          <line class="cls-9" x1="172.9" y1="80.9" x2="172.9" y2="90.9"/>
          <line class="cls-9" x1="175.9" y1="81.9" x2="175.9" y2="85.9"/>
        </g>
      </g>
    </g>
  </g>
</svg>