<svg xmlns="http://www.w3.org/2000/svg" width="112" height="46" viewBox="0 0 112 46">
    <g data-name="Group 1715">
        <g data-name="Group 1138">
            <g data-name="Group 4">
                <g data-name="Group 3">
                    <g data-name="Group 2">
                        <text transform="translate(56 36)" style="font-size:38px;font-family:AmidoneGrotesk" data-name="Group 1"><tspan x="-55.594" y="0">kak</tspan><tspan y="0" style="fill:#694b37">t</tspan><tspan y="0">ag</tspan></text>
                    </g>
                </g>
            </g>
            <path data-name="Path 1" d="M160.738 33.441s3.955 5.489 2.644 10.874c-1.353 5.56 1.276 9.239 3.828 10.9 0 0-5.753-.757-6.472-6.661z" transform="translate(-99.213 -20.293)" style="fill:#775c4a"/>
            <g data-name="Group 29">
                <g data-name="Group 12">
                    <path data-name="Path 2" d="M162.965 5.288c0 2.921-2.557 5.289-2.557 5.289s-2.557-2.368-2.557-5.289S160.408 0 160.408 0s2.557 2.368 2.557 5.288z" transform="translate(-97.851 .184)" style="fill:#86ae1d"/>
                    <path data-name="Path 3" d="M162.965 5.288c0 2.921-2.557 5.289-2.557 5.289s-2.557-2.368-2.557-5.289S160.408 0 160.408 0s2.557 2.368 2.557 5.288z" transform="translate(-97.851 .184)" style="fill:#86ae1d"/>
                    <path data-name="Path 4" d="M163.469 1.92a7.537 7.537 0 0 0-.265 4.049c.151.781.719 1.963 1.626 2.084s1.048-1.569 1.048-2.143a7.386 7.386 0 0 0-2.211-4.691 2.557 2.557 0 0 1-.198.701z" transform="translate(-101.054 -.567)" style="isolation:isolate;fill:#fff;mix-blend-mode:soft-light"/>
                    <path data-name="Path 5" d="M161.586 9.144a2.675 2.675 0 0 1-2.222-1.481 7.151 7.151 0 0 1-.287-4.242A8.627 8.627 0 0 1 160.419.01l-.011-.01s-2.557 2.368-2.557 5.288 2.557 5.289 2.557 5.289a9.443 9.443 0 0 0 1.2-1.431z" transform="translate(-97.851 .184)" style="fill:#d9d9d9;mix-blend-mode:multiply;isolation:isolate"/>
                    <path data-name="Path 6" d="M162.547.855s-2.985 8.063 1.657 8.356l.432-.768s-4.312.657-2.089-7.588z" transform="translate(-100.164 -.343)" style="isolation:isolate;fill:#fff;mix-blend-mode:soft-light"/>
                    <path data-name="Path 7" d="M164.241 12.017s0-.038-.01-.109-.016-.175-.025-.307a42.647 42.647 0 0 1-.095-1.833c-.008-.26-.019-.534-.023-.818s-.014-.577-.015-.875 0-.6-.006-.9 0-.605.006-.9l.015-.874c.005-.283.015-.558.023-.818s.019-.506.03-.733a39.277 39.277 0 0 1 .101-1.516s.015.151.034.416a41.872 41.872 0 0 1 .096 1.833c.008.26.019.534.023.818s.015.577.015.874 0 .6.006.9 0 .605-.006.9l-.015.875c-.005.284-.015.558-.024.818a53.526 53.526 0 0 1-.095 1.833c-.008.132-.019.236-.025.307l-.01.109z" transform="translate(-101.684 -1.256)" style="fill:#628115"/>
                    <g data-name="Group 5">
                        <path data-name="Path 8" d="m164.522 18.9.02-.038a7.7 7.7 0 0 1 .058-.108c.051-.092.124-.224.215-.38.045-.078.094-.163.148-.251s.109-.182.169-.278.12-.2.184-.3l.193-.3.2-.3c.064-.1.131-.2.194-.289s.125-.183.184-.268l.168-.238c.105-.147.2-.268.259-.352s.1-.131.1-.131-.028.054-.079.146-.123.225-.215.38l-.148.251c-.053.088-.109.182-.169.278s-.12.2-.184.3l-.193.3-.2.3c-.064.1-.131.2-.194.289s-.125.183-.184.268-.115.165-.168.238c-.1.147-.195.268-.258.352l-.075.1z" transform="translate(-101.964 -9.477)" style="fill:#628115"/>
                        <path data-name="Path 9" d="m160.965 18.764-.02-.038c-.013-.025-.032-.062-.058-.108a14.599 14.599 0 0 0-.363-.631c-.053-.088-.109-.182-.169-.278s-.12-.2-.184-.3l-.193-.3-.2-.3c-.064-.1-.131-.2-.194-.289s-.125-.183-.184-.268-.116-.165-.169-.238c-.1-.147-.195-.268-.258-.352l-.1-.131.078.146a14.744 14.744 0 0 0 .363.632c.053.088.109.182.169.278s.12.2.184.3l.193.3.2.3c.064.1.131.2.194.289s.125.183.184.268.115.165.168.238c.1.147.195.268.258.352.031.042.058.075.075.1z" transform="translate(-98.482 -9.393)" style="fill:#628115"/>
                    </g>
                    <g data-name="Group 6">
                        <path data-name="Path 10" d="m164.522 16.208.02-.038a16.197 16.197 0 0 1 .273-.489c.045-.078.094-.163.148-.251s.109-.182.169-.278.12-.2.184-.3l.193-.3.2-.3c.064-.1.131-.2.194-.289s.125-.183.184-.268l.168-.238c.105-.147.2-.268.259-.352s.1-.131.1-.131-.028.054-.079.146-.123.225-.215.38l-.148.251c-.053.088-.109.182-.169.278s-.12.2-.184.3l-.193.3-.2.3c-.064.1-.131.2-.194.289s-.125.183-.184.268-.115.165-.168.238c-.1.147-.195.268-.258.352-.031.042-.057.074-.075.1z" transform="translate(-101.964 -7.817)" style="fill:#628115"/>
                        <path data-name="Path 11" d="m160.965 16.073-.02-.038c-.013-.025-.032-.062-.058-.108a16.489 16.489 0 0 0-.363-.631c-.053-.088-.109-.182-.169-.278s-.12-.2-.184-.3l-.193-.3-.2-.3c-.064-.1-.131-.2-.194-.289s-.125-.183-.184-.268-.116-.165-.169-.238c-.1-.147-.195-.268-.258-.352l-.1-.131.078.146a14.744 14.744 0 0 0 .363.632c.053.088.109.182.169.278s.12.2.184.3l.193.3.2.3c.064.1.131.2.194.289s.125.183.184.268.115.165.168.238c.1.147.195.268.258.352.031.042.058.075.075.1z" transform="translate(-98.482 -7.733)" style="fill:#628115"/>
                    </g>
                    <g data-name="Group 7">
                        <path data-name="Path 12" d="M166.123 11.317a11.903 11.903 0 0 0-.347.481c-.048.069-.1.142-.15.219s-.106.154-.158.235l-.161.245-.157.247c-.052.081-.1.163-.15.24s-.094.154-.138.227-.084.141-.121.2c-.074.127-.134.235-.175.31l-.047.088-.017.031.022-.028a11.57 11.57 0 0 0 .409-.56c.048-.069.1-.142.15-.218s.105-.154.158-.235l.16-.245.157-.247c.053-.081.1-.163.15-.24s.094-.154.137-.227.084-.141.121-.2c.074-.127.134-.234.175-.31l.064-.119s-.03.037-.082.106z" transform="translate(-101.953 -6.728)" style="fill:#628115"/>
                        <path data-name="Path 13" d="M161.543 13.614a9.158 9.158 0 0 0-.296-.51c-.044-.067-.089-.149-.138-.227l-.15-.241-.157-.247-.161-.245c-.053-.081-.107-.159-.158-.235s-.1-.149-.15-.219l-.137-.194c-.085-.12-.159-.218-.211-.287l-.082-.107s.022.044.064.119.1.183.175.31c.037.064.077.133.121.2s.089.149.137.227l.15.241.157.246.161.245c.053.081.107.159.158.235s.1.149.15.219l.137.194c.085.12.159.219.211.287l.061.079.021.028-.016-.031-.047-.087z" transform="translate(-99.117 -6.66)" style="fill:#628115"/>
                    </g>
                    <g data-name="Group 8">
                        <path data-name="Path 14" d="M165.821 8.713c-.043.056-.1.137-.173.236-.035.049-.073.1-.112.159s-.082.117-.123.179-.087.127-.13.193l-.132.2-.129.2c-.043.066-.083.133-.123.2l-.113.186-.1.168c-.061.1-.11.193-.144.255l-.039.072-.013.026.018-.023.05-.065c.043-.056.1-.137.173-.235l.113-.159.123-.18c.042-.063.087-.126.13-.193l.132-.2.129-.2c.043-.066.083-.133.123-.2l.113-.186.1-.168c.061-.1.11-.192.144-.255s.052-.1.052-.1-.027.033-.069.09z" transform="translate(-101.945 -5.135)" style="fill:#628115"/>
                        <path data-name="Path 15" d="M162.057 10.6a11.877 11.877 0 0 0-.244-.423l-.113-.186-.123-.2-.129-.2-.132-.2c-.043-.067-.088-.131-.13-.194s-.084-.123-.123-.179l-.113-.159c-.07-.1-.13-.179-.173-.236l-.068-.088.053.1a8.4 8.4 0 0 0 .244.423l.113.186.123.2.129.2.132.2c.043.067.087.131.13.194l.123.179c.039.057.077.11.113.159.07.1.13.179.173.236l.05.065.018.023-.013-.026-.04-.074z" transform="translate(-99.614 -5.079)" style="fill:#628115"/>
                    </g>
                    <g data-name="Group 9">
                        <path data-name="Path 16" d="M165.534 6.681a9.355 9.355 0 0 0-.138.187c-.028.039-.059.081-.09.127l-.1.143c-.035.05-.069.1-.1.153l-.1.16-.1.161c-.034.053-.066.106-.1.157s-.061.1-.09.148l-.079.133c-.049.083-.088.153-.115.2l-.031.057-.011.02.014-.018.04-.052a9.355 9.355 0 0 0 .227-.314l.1-.143c.035-.05.069-.1.1-.154l.1-.159.1-.161c.035-.053.066-.106.1-.157s.061-.1.09-.148l.079-.133.114-.2c.027-.047.041-.078.041-.078z" transform="translate(-101.936 -3.892)" style="fill:#628115"/>
                        <path data-name="Path 17" d="M162.543 8.182c-.027-.049-.066-.12-.115-.2-.024-.041-.05-.087-.079-.134s-.058-.1-.09-.148-.064-.1-.1-.157l-.1-.161-.1-.16c-.034-.053-.07-.1-.1-.154s-.067-.1-.1-.143l-.09-.127c-.056-.078-.1-.142-.138-.187s-.054-.07-.054-.07l.042.078c.027.049.066.119.114.2l.079.133c.029.047.058.1.09.148s.064.1.1.157l.1.161.105.16c.034.053.069.1.1.154s.067.1.1.143.061.088.089.127c.056.078.1.142.138.187l.04.051.014.018-.011-.02c-.011-.012-.021-.032-.034-.056z" transform="translate(-100.084 -3.848)" style="fill:#628115"/>
                    </g>
                    <g data-name="Group 10">
                        <path data-name="Path 18" d="M165.269 4.492a1.975 1.975 0 0 0-.1.143c-.021.03-.044.062-.068.1l-.075.108-.078.117-.08.122-.078.123c-.026.04-.05.081-.074.12l-.068.113-.06.1c-.037.063-.066.117-.087.154l-.024.044-.008.015.011-.014.03-.039c.026-.034.062-.083.1-.143.021-.03.044-.062.068-.1s.049-.071.075-.108.052-.077.078-.117l.08-.122.078-.123.075-.12a5.66 5.66 0 0 0 .068-.113l.06-.1a4.096 4.096 0 0 0 .119-.213z" transform="translate(-101.929 -2.553)" style="fill:#628115"/>
                        <path data-name="Path 19" d="m162.993 5.633-.087-.154-.06-.1c-.022-.036-.044-.074-.069-.113l-.074-.12-.078-.122-.08-.122-.079-.117-.074-.108-.068-.1c-.043-.059-.079-.108-.1-.143l-.041-.053.031.059c.021.038.05.091.087.154.018.032.038.066.06.1s.044.074.068.112l.074.12.078.123.08.122.078.117.075.108.068.1c.043.06.079.108.1.143l.03.039.011.014-.008-.016z" transform="translate(-100.52 -2.519)" style="fill:#628115"/>
                    </g>
                    <g data-name="Group 11">
                        <path data-name="Path 20" d="m165.029 2.661-.075.1-.048.069-.054.077-.056.084-.057.087-.056.088-.053.086-.049.081-.043.073c-.026.045-.048.083-.062.11l-.017.031-.006.011.008-.01.022-.028.075-.1.049-.069.054-.077.056-.084.057-.087.056-.087.053-.086.049-.08.043-.073.063-.11.023-.043z" transform="translate(-101.922 -1.433)" style="fill:#628115"/>
                        <path data-name="Path 21" d="m163.4 3.478-.062-.11-.043-.073-.049-.081-.053-.085-.056-.088-.057-.087-.056-.084-.054-.078-.049-.069a1.598 1.598 0 0 0-.075-.1l-.029-.038.023.042.062.11.043.073.049.08.053.085.056.088.057.087.056.084.053.078.049.069c.03.043.056.077.075.1l.022.028.008.01-.006-.011z" transform="translate(-100.913 -1.409)" style="fill:#628115"/>
                    </g>
                </g>
                <g data-name="Group 20">
                    <path data-name="Path 22" d="M178.424 10.213c-2.065 2.065-5.548 1.932-5.548 1.932s-.134-3.482 1.932-5.548 5.548-1.932 5.548-1.932.133 3.483-1.932 5.548z" transform="translate(-107.341 -1.691)" style="fill:#86ae1d"/>
                    <path data-name="Path 23" d="M178.424 10.213c-2.065 2.065-5.548 1.932-5.548 1.932s-.134-3.482 1.932-5.548 5.548-1.932 5.548-1.932.133 3.483-1.932 5.548z" transform="translate(-107.341 -1.691)" style="fill:#86ae1d"/>
                    <path data-name="Path 24" d="M184.121 5.987a7.539 7.539 0 0 0-3.051 2.676c-.446.659-.88 1.9-.324 2.623s1.851-.368 2.256-.774a7.386 7.386 0 0 0 1.754-4.881 2.554 2.554 0 0 1-.635.356z" transform="translate(-112.034 -2.288)" style="isolation:isolate;fill:#fff;mix-blend-mode:soft-light"/>
                    <path data-name="Path 25" d="M174.722 11.964a2.673 2.673 0 0 1-.524-2.619 7.152 7.152 0 0 1 2.8-3.2 8.626 8.626 0 0 1 3.362-1.463v-.017s-3.482-.134-5.548 1.932-1.932 5.548-1.932 5.548a9.409 9.409 0 0 0 1.859-.165z" transform="translate(-107.341 -1.691)" style="fill:#d9d9d9;mix-blend-mode:multiply;isolation:isolate"/>
                    <path data-name="Path 26" d="M182.69 4.951s-7.813 3.591-4.737 7.08l.848-.238s-3.511-2.585 3.889-6.842z" transform="translate(-110.031 -1.869)" style="isolation:isolate;fill:#fff;mix-blend-mode:soft-light"/>
                    <path data-name="Path 27" d="m172.879 13.166.07-.084c.046-.054.112-.135.2-.235a40.252 40.252 0 0 1 1.229-1.36c.181-.189.364-.391.562-.595s.4-.418.608-.629l.634-.643.643-.634c.21-.21.425-.41.629-.608s.405-.384.595-.562.371-.344.539-.5c.335-.306.621-.556.822-.729s.319-.269.319-.269l-.269.319c-.169.201-.423.486-.729.822-.153.168-.319.35-.5.539s-.364.391-.562.595-.4.418-.608.629l-.634.643-.643.634c-.211.21-.425.411-.629.608s-.405.384-.595.562-.371.344-.539.5c-.335.306-.621.556-.821.729-.1.088-.181.154-.235.2z" transform="translate(-107.344 -2.713)" style="fill:#628115"/>
                    <g data-name="Group 13">
                        <path data-name="Path 28" d="m175.348 20.41.041-.013.117-.035a18.226 18.226 0 0 1 .704-.19c.101-.025.206-.052.316-.077s.223-.054.339-.079l.351-.078.352-.073c.116-.025.231-.045.342-.067s.218-.041.32-.059a17.81 17.81 0 0 1 .72-.115l.164-.021-.159.048a15.155 15.155 0 0 1-.704.19c-.101.025-.206.052-.316.077s-.223.054-.339.079l-.35.078-.352.073c-.116.025-.231.045-.342.067s-.218.041-.32.059a19.889 19.889 0 0 1-.719.115l-.122.016z" transform="translate(-108.867 -10.903)" style="fill:#628115"/>
                        <path data-name="Path 29" d="m175.307 15.422.013-.041.036-.117a16.89 16.89 0 0 0 .19-.704c.025-.101.052-.206.077-.316s.054-.223.079-.339l.078-.35.073-.352c.025-.116.045-.23.067-.341s.041-.218.059-.32l.049-.288c.03-.178.051-.327.066-.432s.021-.165.021-.165-.019.058-.048.159-.071.246-.117.421c-.023.087-.048.182-.073.283s-.052.206-.077.316-.054.223-.079.339l-.077.351-.073.352c-.025.116-.045.231-.067.341s-.041.219-.059.32l-.05.287c-.03.178-.052.327-.066.432-.008.052-.012.093-.016.122z" transform="translate(-108.842 -6.004)" style="fill:#628115"/>
                    </g>
                    <g data-name="Group 14">
                        <path data-name="Path 30" d="m177.25 18.507.041-.013.118-.035a18.226 18.226 0 0 1 .704-.19c.101-.025.206-.052.316-.077s.223-.054.339-.079l.351-.078.351-.073c.116-.025.231-.045.342-.067s.218-.041.32-.059a17.81 17.81 0 0 1 .72-.115l.165-.021s-.058.019-.159.048-.246.071-.421.117c-.087.023-.182.048-.283.073s-.206.052-.316.077-.223.054-.339.079l-.351.078-.352.073c-.116.025-.23.045-.341.067s-.218.041-.32.059l-.287.05c-.178.03-.327.051-.432.066l-.122.016z" transform="translate(-110.04 -9.73)" style="fill:#628115"/>
                        <path data-name="Path 31" d="m177.21 13.519.013-.041.035-.117a18.226 18.226 0 0 0 .19-.704c.025-.101.052-.206.077-.316s.054-.223.079-.338l.078-.351.073-.352a22.524 22.524 0 0 0 .175-.948c.03-.178.052-.327.066-.432l.021-.164-.048.159c-.03.102-.071.246-.117.421-.023.087-.049.182-.073.283s-.052.206-.077.316-.054.223-.079.338l-.078.351-.073.352c-.024.116-.045.231-.067.342s-.041.218-.059.32a17.81 17.81 0 0 0-.115.72c-.008.052-.012.094-.016.122z" transform="translate(-110.015 -4.831)" style="fill:#628115"/>
                    </g>
                    <g data-name="Group 15">
                        <path data-name="Path 32" d="M182.524 15.741a15.046 15.046 0 0 0-.586.094c-.083.015-.171.03-.261.048s-.184.035-.278.055l-.286.06-.286.063c-.094.02-.187.043-.276.064l-.257.063-.23.059a4.458 4.458 0 0 0-.343.1l-.1.029-.034.011h.035l.1-.013c.085-.012.207-.03.352-.054l.234-.041c.083-.015.171-.03.261-.048s.184-.035.278-.055l.286-.06.286-.063c.095-.02.187-.043.276-.064l.258-.063a10.638 10.638 0 0 0 .573-.159l.129-.039z" transform="translate(-111.483 -8.512)" style="fill:#628115"/>
                        <path data-name="Path 33" d="m179.6 12.189.1-.343c.019-.071.039-.148.059-.23l.063-.257.064-.276.063-.286.051-.287c.02-.094.037-.188.055-.278s.033-.177.048-.261l.041-.234c.024-.145.042-.266.054-.352s.017-.134.017-.134l-.039.13-.1.343c-.019.071-.039.148-.059.23l-.063.258c-.021.09-.044.182-.064.276l-.063.286-.059.286c-.02.094-.037.188-.055.278s-.033.178-.048.261l-.041.234c-.024.145-.042.267-.054.352l-.013.1v.035l.01-.034.033-.097z" transform="translate(-111.463 -4.52)" style="fill:#628115"/>
                    </g>
                    <g data-name="Group 16">
                        <path data-name="Path 34" d="M184.686 13.339c-.07.01-.17.024-.289.044l-.192.033-.214.039c-.074.015-.151.028-.229.045l-.235.049-.235.052-.227.053c-.074.017-.144.035-.212.052l-.189.049c-.117.031-.214.058-.282.078l-.079.024-.028.008h.029l.081-.011c.07-.01.17-.024.289-.044.06-.01.125-.02.192-.033l.214-.039.228-.045.235-.049.235-.052c.077-.016.153-.036.227-.053l.212-.052.189-.049c.117-.031.214-.058.282-.078l.106-.032z" transform="translate(-113.139 -7.033)" style="fill:#628115"/>
                        <path data-name="Path 35" d="M182.282 10.421c.02-.068.048-.165.078-.282l.049-.189c.017-.067.035-.138.052-.212s.036-.149.053-.227l.052-.235.049-.235.045-.228a8.552 8.552 0 0 0 .073-.407c.02-.119.035-.219.044-.289l.014-.11-.032.106c-.02.068-.048.165-.079.282l-.049.189c-.017.067-.035.138-.052.212s-.036.149-.053.227l-.052.235-.049.235-.045.228c-.015.074-.027.146-.039.214l-.033.192c-.02.119-.035.219-.044.289 0 .035-.008.062-.011.081s0 .029 0 .029l.009-.028c.001-.016.01-.043.02-.077z" transform="translate(-113.122 -3.754)" style="fill:#628115"/>
                    </g>
                    <g data-name="Group 17">
                        <path data-name="Path 36" d="m186.424 11.374-.23.035-.153.026-.17.031-.181.036-.187.039-.187.041-.181.042-.168.041-.15.039c-.093.024-.17.046-.224.062l-.062.019-.022.007h.023l.065-.008c.056-.008.135-.019.23-.035l.153-.026.17-.031.182-.036.187-.039.186-.041c.062-.013.122-.028.181-.042l.168-.041.15-.039c.093-.025.17-.046.224-.062l.084-.026z" transform="translate(-114.516 -5.823)" style="fill:#628115"/>
                        <path data-name="Path 37" d="M184.514 9.055c.016-.054.038-.131.062-.224l.039-.15c.013-.05.028-.11.041-.168l.042-.181.041-.186.039-.187.036-.182c.012-.059.021-.116.031-.17l.026-.153c.016-.095.028-.174.036-.23l.011-.088-.026.085a6.576 6.576 0 0 0-.062.224l-.039.15c-.013.05-.028.11-.041.168s-.029.118-.042.18l-.041.187-.039.187-.036.181c-.012.058-.021.116-.031.17l-.026.153c-.016.095-.027.174-.035.23 0 .028-.007.049-.008.064v.023l.007-.022c.001-.016.007-.035.015-.061z" transform="translate(-114.503 -3.216)" style="fill:#628115"/>
                    </g>
                    <g data-name="Group 18">
                        <path data-name="Path 38" d="m188.253 9.335-.175.027-.117.02-.129.024-.138.027-.142.03-.142.031-.137.032-.128.031-.114.03-.17.048-.048.014-.017.005h.018l.049-.007.175-.027.116-.02.13-.024.138-.027.143-.03.142-.031.137-.032.128-.031.115-.029.17-.048.064-.02z" transform="translate(-115.927 -4.568)" style="fill:#628115"/>
                        <path data-name="Path 39" d="m186.8 7.571.048-.171.03-.114.031-.128.032-.137.031-.142.03-.142.027-.138.024-.13.02-.116.027-.175.008-.067-.019.064a8.95 8.95 0 0 0-.078.284l-.031.128-.032.137-.031.142-.03.142-.027.138-.024.13-.02.117a6.823 6.823 0 0 0-.027.175c0 .021 0 .038-.006.049v.017-.016a.29.29 0 0 0 .017-.047z" transform="translate(-115.917 -2.585)" style="fill:#628115"/>
                    </g>
                    <g data-name="Group 19">
                        <path data-name="Path 40" d="m189.8 7.6-.125.019-.083.014-.093.017-.1.02-.1.021-.1.023-.1.023-.092.022-.082.021-.122.034-.034.01h-.012.048l.125-.019.083-.015.093-.017.1-.02.1-.021.1-.022.1-.023.092-.022.082-.021.122-.034.046-.014z" transform="translate(-117.136 -3.498)" style="fill:#628115"/>
                        <path data-name="Path 41" d="M188.76 6.335a2.56 2.56 0 0 0 .055-.204l.022-.092c.007-.032.016-.065.023-.1l.022-.1.021-.1.019-.1.017-.093.015-.083.019-.125.007-.048-.014.046-.034.122-.021.082-.023.092c-.008.032-.016.064-.023.1l-.022.1-.021.1-.02.1-.017.093-.014.084c-.009.051-.015.095-.019.125s0 .027 0 .035v.012-.012c0-.008.004-.019.008-.034z" transform="translate(-117.129 -2.078)" style="fill:#628115"/>
                    </g>
                </g>
                <g data-name="Group 28">
                    <path data-name="Path 42" d="M140.476 18.038c2.065 2.065 5.548 1.932 5.548 1.932s.134-3.483-1.932-5.548-5.548-1.932-5.548-1.932-.134 3.482 1.932 5.548z" transform="translate(-85.525 -7.015)" style="fill:#86ae1d"/>
                    <path data-name="Path 43" d="M140.476 18.038c2.065 2.065 5.548 1.932 5.548 1.932s.134-3.483-1.932-5.548-5.548-1.932-5.548-1.932-.134 3.482 1.932 5.548z" transform="translate(-85.525 -7.015)" style="fill:#86ae1d"/>
                    <path data-name="Path 44" d="M139.943 13.812a7.541 7.541 0 0 1 3.051 2.675c.446.659.88 1.9.324 2.623s-1.851-.368-2.257-.774a7.388 7.388 0 0 1-1.753-4.881 2.58 2.58 0 0 0 .635.357z" transform="translate(-85.997 -7.612)" style="isolation:isolate;fill:#fff;mix-blend-mode:soft-light"/>
                    <path data-name="Path 45" d="M144.18 19.789a2.675 2.675 0 0 0 .524-2.619 7.151 7.151 0 0 0-2.8-3.2 8.627 8.627 0 0 0-3.362-1.463v-.017s3.482-.134 5.548 1.932 1.932 5.548 1.932 5.548a9.445 9.445 0 0 1-1.859-.165z" transform="translate(-85.528 -7.015)" style="fill:#d9d9d9;mix-blend-mode:multiply;isolation:isolate"/>
                    <path data-name="Path 46" d="M139.473 12.776s7.813 3.59 4.737 7.08l-.848-.238s3.511-2.585-3.889-6.842z" transform="translate(-86.099 -7.193)" style="isolation:isolate;fill:#fff;mix-blend-mode:soft-light"/>
                    <path data-name="Path 47" d="m147.045 20.99-.07-.084c-.046-.054-.112-.135-.2-.235-.173-.2-.423-.486-.729-.821-.153-.168-.318-.35-.5-.54s-.364-.391-.562-.595-.4-.418-.608-.629l-.634-.643-.643-.634c-.21-.211-.425-.411-.629-.608s-.405-.384-.595-.562-.371-.344-.54-.5c-.335-.306-.621-.556-.821-.729s-.319-.27-.319-.27l.269.319c.169.201.423.486.729.821.153.169.319.35.5.539s.364.391.562.595.4.418.608.629l.634.642.643.634c.211.21.425.411.629.608s.4.384.595.562.371.344.539.5c.335.307.621.556.822.729.1.087.181.153.235.2z" transform="translate(-86.547 -8.036)" style="fill:#628115"/>
                    <g data-name="Group 21">
                        <path data-name="Path 48" d="m149.533 28.234-.041-.013-.117-.035a18.226 18.226 0 0 0-.704-.19c-.101-.025-.206-.052-.316-.077s-.223-.054-.339-.079l-.351-.078-.352-.073c-.116-.025-.231-.045-.342-.067s-.218-.041-.32-.059l-.287-.05c-.178-.03-.327-.052-.432-.066l-.164-.021s.058.019.159.048.246.071.421.117c.088.023.182.048.283.073s.206.052.316.077.223.054.339.079l.35.077.352.073c.116.025.231.045.342.067s.218.041.32.059l.288.049c.178.03.327.051.432.066l.122.016z" transform="translate(-89.982 -16.227)" style="fill:#628115"/>
                        <path data-name="Path 49" d="m154.33 23.247-.013-.041c-.008-.027-.021-.067-.035-.118a18.226 18.226 0 0 1-.19-.704c-.025-.101-.053-.206-.078-.316s-.054-.223-.079-.339l-.078-.351-.073-.352c-.025-.116-.045-.231-.067-.341s-.041-.218-.059-.32a19.889 19.889 0 0 1-.115-.719l-.021-.164a15.147 15.147 0 0 0 .238.862c.025.1.052.206.077.316s.054.223.079.339l.077.35.073.352c.025.116.045.23.067.341s.041.218.059.32l.05.288c.03.178.051.327.066.432.008.052.013.094.016.122z" transform="translate(-94.763 -11.328)" style="fill:#628115"/>
                    </g>
                    <g data-name="Group 22">
                        <path data-name="Path 50" d="m147.631 26.332-.041-.013c-.027-.008-.067-.021-.118-.035a18.226 18.226 0 0 0-.704-.19c-.101-.025-.206-.052-.316-.077s-.223-.054-.339-.079l-.351-.078-.351-.073c-.116-.025-.23-.045-.341-.067s-.218-.041-.32-.059a17.81 17.81 0 0 0-.885-.136l.159.048a15.155 15.155 0 0 0 .703.19c.1.025.206.052.316.077s.223.054.339.079l.35.078.352.073c.116.025.23.045.341.067s.218.041.32.059a19.889 19.889 0 0 0 .719.115l.122.016z" transform="translate(-88.808 -15.054)" style="fill:#628115"/>
                        <path data-name="Path 51" d="m152.427 21.344-.013-.041c-.008-.027-.021-.067-.035-.118a18.226 18.226 0 0 1-.19-.704c-.025-.101-.052-.206-.077-.316s-.054-.223-.079-.339l-.078-.35-.073-.352a20.332 20.332 0 0 1-.126-.661 17.81 17.81 0 0 1-.136-.885 15.147 15.147 0 0 0 .165.58c.023.087.049.182.073.282s.052.206.077.316.054.223.079.339l.078.351.073.352.067.341c.022.11.041.219.059.32a16.119 16.119 0 0 1 .115.72c.008.052.012.093.016.121z" transform="translate(-93.589 -10.155)" style="fill:#628115"/>
                    </g>
                    <g data-name="Group 23">
                        <path data-name="Path 52" d="M143.479 23.565a15.046 15.046 0 0 1 .586.094c.083.015.171.03.261.048s.184.034.278.055l.286.059.286.063.276.064c.089.02.176.043.258.063a10.638 10.638 0 0 1 .573.159l.1.029.034.01h-.035l-.1-.013c-.085-.012-.207-.03-.352-.054l-.234-.04c-.083-.015-.171-.03-.261-.048s-.184-.035-.278-.055l-.287-.059-.286-.063c-.094-.02-.186-.044-.276-.064s-.176-.043-.257-.063l-.23-.059c-.142-.037-.26-.071-.343-.1s-.129-.039-.129-.039z" transform="translate(-88.487 -13.835)" style="fill:#628115"/>
                        <path data-name="Path 53" d="m150.28 20.013-.1-.343c-.019-.071-.039-.148-.059-.23s-.043-.168-.064-.258-.044-.182-.064-.276l-.063-.286-.059-.286c-.02-.094-.037-.188-.055-.278s-.033-.178-.048-.261l-.041-.234c-.024-.145-.042-.267-.054-.352s-.017-.134-.017-.134l.039.129.1.343c.019.071.039.148.059.23l.063.257c.021.089.044.182.064.276l.063.286.059.286c.02.094.037.188.055.278s.033.178.048.261a15.29 15.29 0 0 1 .095.586l.013.1v.035l-.01-.034a1.19 1.19 0 0 0-.024-.095z" transform="translate(-92.382 -9.844)" style="fill:#628115"/>
                    </g>
                    <g data-name="Group 24">
                        <path data-name="Path 54" d="M142.2 21.164c.07.01.17.024.289.044l.192.033c.068.012.14.025.214.04s.151.028.229.045l.235.049.235.052c.077.016.153.036.227.053s.144.035.212.052l.189.049c.117.031.214.058.282.078l.079.023.028.009h-.029l-.081-.01-.289-.044-.192-.033-.214-.039c-.074-.014-.151-.028-.228-.045l-.235-.049-.235-.052-.227-.053a9.52 9.52 0 0 1-.212-.052l-.189-.049a11.405 11.405 0 0 1-.282-.078l-.106-.033z" transform="translate(-87.712 -12.356)" style="fill:#628115"/>
                        <path data-name="Path 55" d="M147.785 18.246a8.197 8.197 0 0 1-.078-.282l-.049-.189c-.017-.067-.035-.138-.052-.212s-.036-.149-.053-.227l-.052-.235-.049-.235c-.017-.078-.03-.154-.045-.228s-.028-.146-.04-.214l-.033-.192c-.02-.119-.035-.219-.044-.289l-.014-.11.032.106c.02.068.048.165.079.282l.049.189.052.212c.018.074.036.149.052.227l.052.234.049.235.045.228c.015.074.027.146.039.214l.033.192c.02.119.034.219.044.289 0 .035.008.062.011.081s0 .029 0 .029l-.009-.028-.019-.077z" transform="translate(-90.911 -9.078)" style="fill:#628115"/>
                    </g>
                    <g data-name="Group 25">
                        <path data-name="Path 56" d="M141.29 19.2c.056.008.135.019.23.035l.153.026.17.032c.059.011.12.022.181.036l.187.039.187.041.18.042.168.041.15.039c.093.025.17.046.224.062l.063.019.022.007h-.023l-.065-.008-.23-.035-.153-.026-.17-.031-.182-.036-.187-.039-.186-.041c-.062-.013-.122-.028-.181-.042l-.168-.041-.15-.039c-.093-.025-.17-.046-.224-.062l-.084-.026z" transform="translate(-87.166 -11.146)" style="fill:#628115"/>
                        <path data-name="Path 57" d="M145.731 16.879a6.576 6.576 0 0 1-.062-.224l-.039-.15c-.013-.05-.028-.11-.041-.168l-.042-.18-.041-.187-.039-.187-.036-.182c-.012-.059-.021-.116-.031-.17l-.026-.153c-.016-.095-.028-.174-.035-.23l-.012-.087a5.18 5.18 0 0 0 .089.308l.039.15c.013.05.028.11.041.168s.029.119.042.18l.041.187.039.187.036.182c.012.059.021.116.031.17l.026.153c.016.095.027.174.035.23 0 .028.007.05.008.065v.023l-.007-.022c-.001-.015-.008-.036-.016-.063z" transform="translate(-89.709 -8.54)" style="fill:#628115"/>
                    </g>
                    <g data-name="Group 26">
                        <path data-name="Path 58" d="m140.233 17.16.175.027.117.02.129.024.138.027.142.03.142.031.137.032.128.031.114.03c.071.018.129.035.17.047l.048.015h.017-.018l-.049-.006-.175-.027-.116-.02-.13-.024-.138-.027-.142-.03-.142-.031-.137-.032-.128-.031-.115-.03c-.071-.018-.129-.035-.17-.047l-.064-.02z" transform="translate(-86.527 -9.891)" style="fill:#628115"/>
                        <path data-name="Path 59" d="M143.612 15.4a8.95 8.95 0 0 1-.048-.17l-.03-.114-.031-.128-.032-.137-.031-.142-.03-.142-.027-.138-.024-.13-.02-.117-.027-.175-.008-.067a6.94 6.94 0 0 0 .097.349l.031.128.032.137.031.142c.01.048.02.1.03.142s.018.093.027.138l.024.129.02.117.027.175.006.049v.017-.017a.491.491 0 0 1-.017-.046z" transform="translate(-88.462 -7.908)" style="fill:#628115"/>
                    </g>
                    <g data-name="Group 27">
                        <path data-name="Path 60" d="m139.381 15.423.125.019.083.015.093.017.1.019.1.021.1.023.1.023.092.023.082.021c.051.013.093.025.122.034l.034.01h.012-.048l-.125-.019-.084-.014-.092-.017-.1-.02-.1-.021-.1-.023-.1-.023-.092-.023-.082-.021a2.56 2.56 0 0 1-.122-.034l-.046-.014z" transform="translate(-86.013 -8.822)" style="fill:#628115"/>
                        <path data-name="Path 61" d="m141.8 14.16-.034-.122-.021-.082-.023-.092-.023-.1-.022-.1-.021-.1-.019-.1-.017-.093a3.33 3.33 0 0 0-.015-.083l-.019-.125-.006-.048.014.046a2.56 2.56 0 0 1 .055.204l.022.092.023.1.023.1.021.1.02.1.017.093.014.083c.009.052.015.1.019.125v.048-.012z" transform="translate(-87.398 -7.402)" style="fill:#628115"/>
                    </g>
                </g>
            </g>
            <g data-name="Group 30" style="opacity:.5">
                <path data-name="Line 1" transform="translate(63.323 12.56)" style="stroke-width:.25px;fill:none;stroke:#443328;stroke-linecap:round;stroke-linejoin:round" d="M0 0v19.678"/>
                <path data-name="Line 2" transform="translate(62.173 13.136)" style="stroke-width:.3px;fill:none;stroke:#443328;stroke-linecap:round;stroke-linejoin:round" d="M0 0v18.083"/>
                <path data-name="Line 3" transform="translate(61.023 17.7)" style="stroke-width:.25px;fill:none;stroke:#443328;stroke-linecap:round;stroke-linejoin:round" d="M0 0v2.134"/>
                <path data-name="Line 4" transform="translate(65.623 17.6)" style="stroke-width:.25px;fill:none;stroke:#443328;stroke-linecap:round;stroke-linejoin:round" d="M0 0v2.168"/>
                <path data-name="Line 5" transform="translate(64.473 11.602)" style="stroke-width:.3px;fill:none;stroke:#443328;stroke-linecap:round;stroke-linejoin:round" d="M0 0v21.594"/>
                <path data-name="Line 6" transform="translate(66.773 17.7)" style="stroke-width:.3px;fill:none;stroke:#443328;stroke-linecap:round;stroke-linejoin:round" d="M0 0v2"/>
                <path data-name="Line 7" transform="translate(59.873 17.7)" style="stroke-width:.3px;fill:none;stroke:#443328;stroke-linecap:round;stroke-linejoin:round" d="M0 0v1.968"/>
                <path data-name="Line 8" transform="translate(65.624 29.896)" style="stroke-width:.25px;fill:none;stroke:#443328;stroke-linecap:round;stroke-linejoin:round" d="M0 0v4.45"/>
                <path data-name="Line 9" transform="translate(66.774 31.219)" style="stroke-width:.3px;fill:none;stroke:#443328;stroke-linecap:round;stroke-linejoin:round" d="M0 0v3.521"/>
                <path data-name="Line 10" transform="translate(67.923 31.709)" style="stroke-width:.25px;fill:none;stroke:#443328;stroke-linecap:round;stroke-linejoin:round" d="M0 0v2.975"/>
                <path data-name="Line 16" transform="translate(69.044 31.946)" style="stroke-width:.25px;fill:none;stroke:#443328;stroke-linecap:round;stroke-linejoin:round" d="M0 0h0"/>
            </g>
        </g>
    </g>
</svg>
