<svg xmlns="http://www.w3.org/2000/svg" width="294.801" height="162.055" viewBox="0 0 294.801 162.055">
    <defs>
        <clipPath id="ge4i476m6a">
            <path data-name="Rectangle 559" style="stroke:#707070;fill:#fff;opacity:.646" d="M0 0h294.801v160.181H0z"/>
        </clipPath>
        <clipPath id="bnhblssfyb">
            <path data-name="Rectangle 505" style="fill:#694b37;stroke:#707070" d="M0 0h22.415v38.354H0z"/>
        </clipPath>
        <clipPath id="61s55c03ac">
            <path data-name="Rectangle 506" style="fill:#694b37;stroke:#707070" d="M0 0h23.336v38.893H0z"/>
        </clipPath>
        <clipPath id="4so4o2o0fd">
            <path data-name="Rectangle 512" style="fill:#694b37;stroke:#707070" d="M0 0h15.072v21.492H0z"/>
        </clipPath>
        <clipPath id="baoax23sve">
            <path data-name="Rectangle 529" style="fill:#694b37;stroke:#707070" d="M0 0h16.272v23.203H0z"/>
        </clipPath>
        <clipPath id="5yzebdmkif">
            <path data-name="Rectangle 507" style="fill:#694b37;stroke:#707070" d="M0 0h17.11v28.657H0z"/>
        </clipPath>
        <clipPath id="955w6znt5g">
            <path data-name="Rectangle 530" style="fill:#694b37;stroke:#707070" d="M0 0h12.381v20.736H0z"/>
        </clipPath>
        <clipPath id="ncw9it069h">
            <path data-name="Rectangle 520" style="fill:#694b37;stroke:#707070" d="M0 0h14.005v23.457H0z"/>
        </clipPath>
        <clipPath id="wgnngkt17i">
            <path data-name="Rectangle 514" style="fill:#694b37;stroke:#707070" d="M0 0h18.181v18.015H0z"/>
        </clipPath>
        <clipPath id="aqpdo1481j">
            <path data-name="Rectangle 534" style="fill:#694b37;stroke:#707070" d="M0 0h12.154v20.356H0z"/>
        </clipPath>
        <clipPath id="kpq0aehpnk">
            <path data-name="Rectangle 535" style="fill:#694b37;stroke:#707070" d="M0 0h8.818v12.574H0z"/>
        </clipPath>
    </defs>
    <g data-name="Group 1728" style="opacity:.07">
        <g data-name="Mask Group 36" transform="translate(0 1.873)" style="clip-path:url(#ge4i476m6a)">
            <g data-name="Group 1717">
                <g data-name="Group 1661">
                    <g data-name="Group 1517">
                        <path data-name="Path 2975" d="M123.631 97.129c.249-1.386.548-2.814.8-4.2a65.376 65.376 0 0 1-2.291-2.773c-8.319-10.439-5.18-14.924-15.89-19.369-10.66-4.485-14.047-5.1-17.932-16.6s-14.3-17.044-20.273-21.938-6.525-4.485 1.843-2.12c8.318 2.324 14.844-.2 24.706-2.773s10.411-1.509 18.978-.652 14.857 3.084 23.909 5.709c1.743-.612-1-3.912-16.936-8.768-17.185-2.569-17.583-1.59-32.377 1.264-14.844 2.854-12.1 2.854-30.833-4.159s-33.974-8.313-44.085-9.904C3.088 9.256 0 0 0 0c.4 4.159-.4 7.788 2.989 10.561s11.706 9.99 14.595 14.679c2.839 4.689 1.544 11.091 0 16.188s-3.138 8.318-3.138 12.151-.246 9.991-.246 15.333 2.341-.652 2.092-6.2-.8-8.726 1.046-12.763 2.337-9.785 4.927-5.949 5.479 6.4 6.226 9.99c.8 3.629-.249 6.606 2.59 13.211s.8 7.666-3.138 13.415c-3.884 5.748-4.681 9.584-2.343 16.39s1.046-1.713 1.046-7.258 3.636-9.175 8.069-13.619c4.433-4.485-1.544-9.175-2.59-12.763-1.046-3.629-1.544-11.295 0-10.643s2.341 3.425 4.682 9.175 4.931 8.114 9.364 13.211 6.774 17.248 10.909 24.914 2.092 13.619 1.046 18.308-2.341 11.091.249 15.536c2.59 4.485 4.184 4.037 2.341.408s0-10.439 1.046-16.392 3.138-9.786-.249-15.332a46.035 46.035 0 0 1-6.774-16.188c-1.843-7.666-2.59-9.99-8.069-15.984-5.476-5.953-6.77-12.559-8.565-15.331-1.843-2.773 8.568 1.509 15.342 7.666 6.774 6.2 19.526 20.877 9.614 7.666-9.861-13.212-18.729-15.536-26.55-20.022S26.1 37.6 23.76 29.93 13.35 15.006 13.35 15.006c8.568.856 23.909 3.425 30.982 8.114 7.023 4.689 7.272 8.074 8.567 11.295 1.3 3.181 0 4.037 8.069 12.151S70.333 56.8 71.13 62.1c.8 5.342.5 6.4 5.977 14.476s3.387.856-1.046-5.546-.5-8.93-3.636-14.272-9.863-12.149-13.549-16.838a11.289 11.289 0 0 1-1.793-9.99c14.3 8.114 28.89 27.891 30.185 33.844s1.843 12.355 7.023 20.021c5.23 7.666 5.23 9.99 3.885 14.679-1.3 4.689-5.23 7.666-1.544 15.78 3.636 8.074 6.774 15.332 3.636 4.689s-3.636-11.907.249-17.452.5-11.7-2.341-17.452c-2.889-5.749-5.728-7.462-5.479-11.947s5.48-.652 11.703 1.508c6.226 2.12 10.66 12.355 15.89 19.573a43.254 43.254 0 0 0 3.287 4z" transform="rotate(-2.98 -72.119 -2881.83)" style="fill:#694b37"/>
                    </g>
                    <g data-name="Group 1521">
                        <g data-name="Group 1518">
                            <path data-name="Path 2976" d="M51.453 2.676s-7.82-3.833-14.3-2.324c-6.525 1.509-8.866 5.1-18.48 4.485C9.064 4.185 1.742 5.693.447 9.526S-.35 5.49 16.336 6.1c16.637.652 14.545-1.713 19.526-3.181 4.931-1.468 10.41.856 10.41.856l5.18-1.06z" transform="rotate(-2.98 538.719 -67.124)" style="fill:#694b37"/>
                        </g>
                        <g data-name="Group 1519">
                            <path data-name="Path 2977" d="M53.894.166s-4.682.407-9.364 6.605c-4.682 6.157-5.18 11.7-13 14.475s-9.613 5.1-13.8 8.93C13.6 34.01 7.57 32.093 2.888 34.01s-3.636-.856 2.889-1.916 8.069-.856 13.5-5.953c5.479-5.1 8.966-5.79 11.955-7.462C35.912 16.109 41.64 1.226 46.821.573c7.82-.979 7.023-.408 7.023-.408z" transform="rotate(-2.98 609.52 -166.692)" style="fill:#694b37"/>
                        </g>
                        <g data-name="Group 1520">
                            <path data-name="Path 2978" d="M109.214 2.529C94.122 8.482 93.076 6.158 89.689 10.4s-11.955 9.378-23.66 8.074c-11.706-1.264-14.545-1.916-22.116 2.773s-9.364 7.258-18.48 8.318-30.589 12.42-24.296 14.351c5.9-7.477 16.525-10.479 26.886-11.539 10.41-1.06 12.2-7.666 21.319-10.439s10.161-.2 20.821.2 14.047-2.12 19.775-7.013 7.82-2.977 19.277-7.87 15.042-10.68-.001-4.726z" style="fill:#694b37" transform="rotate(-2.98 231.375 -19.25)"/>
                        </g>
                    </g>
                    <g data-name="Group 1522">
                        <path data-name="Path 2979" d="M113.047 2.986a14.558 14.558 0 0 1-4.931 10.194c-3.935 3.792-10.062 3.14-15.491 3.221-9.066.163-15.989 3.629-22.614 8.4-3.686 2.65-6.974 4.771-11.955 5.5-5.081.734-10.211.775-15.143 2.12-7.87 2.08-15.192 6.035-21.867 9.949A149.979 149.979 0 0 0 .972 56.485c-5.977 4.975 17.235-9.256 25.3-13.864a91.273 91.273 0 0 1 11.457-5.546c4.931-1.916 10.012-2.243 15.342-2.773 9.613-.979 16.338-5.26 23.411-10.276 4.583-3.262 9.165-3.751 15.143-3.751 4.931 0 9.813-.449 14.246-2.406 7.87-3.466 13.9-9.7 14.2-17.207.1-1.835-6.924.53-6.973 2.406z" transform="rotate(-2.98 378.47 -449.554)" style="fill:#694b37"/>
                    </g>
                    <g data-name="Group 1524">
                        <path data-name="Path 2981" d="M20.388.946A42.58 42.58 0 0 1 18.514 4.9c-1.078 1.976-2.285 3.615-6.445 5.381-4.16 1.745-6.573 1.745-8.576 4.5S-.538 18.287.13 18.518s2.953-2.733 4.827-4.162a11.345 11.345 0 0 1 5.495-2.417c2.542-.547 2.7-.547 1.489.652a13.8 13.8 0 0 0-3.492 4.6c-1.207 2.522-1.335 4.729-3.62 6.474C2.543 25.433.412 27.178.54 28.166s.514-1.261 3.826-3.384C8.32 22.259 7.73 21.1 9.6 17.7a34.413 34.413 0 0 1 8.037-9.227 17.416 17.416 0 0 0 2.722-3.7C21.775 2.312 23.084 0 23.084 0l-2.67.925z" transform="matrix(.999 -.052 .052 .999 87.376 90.087)" style="fill:#694b37"/>
                    </g>
                    <g data-name="Group 1525">
                        <path data-name="Path 2982" d="M59.476 1.228a11.2 11.2 0 0 1-4.732 11.295c-6.376 4.648-14.595 9.745-16.836 16.84S32.18 46.2 17.984 50.077 3.987 58.885.948 62.922c-3.088 4.037 2.192-.367 4.085-3.058 1.943-2.691 3.835-4.852 11.506-6.932s15.342-4.119 20.522-12.682 4.782-13.619 7.92-16.188-.7 2.08 0 9.378c.7 7.34.946 8.971-5.33 16.8s-4.383 6.687-2.59 4.73 3.985-5.342 7.372-8.767c3.437-3.384 3.686-7.1 3.537-13.211-.15-6.076 1.644-11.05 4.782-13.9 3.138-2.9 9.713-5.26 10.66-12.274s-4.134-8.033-4.035-5.668z" transform="matrix(.999 -.052 .052 .999 81.894 86.23)" style="fill:#694b37"/>
                    </g>
                    <g data-name="Group 1526">
                        <path data-name="Path 2983" d="M32.676 0c-9.265 1.019-10.709 8.848-12.4 15.209C17.434 25.811 9.962 34.864 0 41.918c.548-.367 1.743-.122 2.291-.489 8.07-5.709 15.442-13.212 18.729-21.653 1.444-3.67 2.092-7.584 3.387-11.295C25.1 6.4 27.1.856 30.484.489 31.231.408 31.979.082 32.726 0h-.05z" transform="rotate(-2.98 698.663 -1567.06)" style="fill:#694b37"/>
                    </g>
                    <g data-name="Group 1527">
                        <path data-name="Path 2984" d="M36.412.449c-3.587 2.528-7.572 4.689-11.258 7.135a29.306 29.306 0 0 0-8.966 9.786C12.3 23.691 8.169 28.095 0 30.908c.7-.245 1.544-.245 2.291-.489 8.169-2.814 12.3-7.217 16.189-13.538a30.152 30.152 0 0 1 8.12-9.174C30.385 4.893 34.818 2.732 38.7 0c-.548.367-1.743.122-2.242.489z" transform="rotate(-2.98 868.19 -1080.855)" style="fill:#694b37"/>
                    </g>
                    <g data-name="Group 1528">
                        <path data-name="Path 2985" d="M39.641.138c-4.433 2.283-5.927 5.382-6.426 9.5a10.8 10.8 0 0 1-1.843 5.668c-1.893 2.528-5.23 2.365-8.318 3.017a15.892 15.892 0 0 0-10.859 7.829 65.867 65.867 0 0 1-3.487 5.831c-1.694 2.324-4.782 3.1-7.82 3.711-1.395.285-1.046 1.264.349 1.019 4.184-.815 7.671-2.039 9.962-5.1 3.835-5.179 4.732-10.683 13.05-12.437 4.632-.979 7.87-1.223 10.211-5.138.946-1.59.946-3.507 1.146-5.26A9.431 9.431 0 0 1 41.085.79C42.38.1 40.438-.229 39.641.179z" transform="rotate(-2.98 620.008 -1925.488)" style="fill:#694b37"/>
                    </g>
                    <g data-name="Group 1531">
                        <path data-name="Path 2986" d="M91.121 51.48c-5.131 24.629-5.828 24.914-4.284 34.17s14.844 11.662 17.583 20.429c2.74 8.808-6.824-5.082 5.23 2.747 12.1 7.829 10.909 10.561 15.043 21.407 4.085 10.846 9.962 13.089 13.449 15.006s.4 1.1.4 1.1c-10.909-4.485-13.25-8.318-16.986-18.349-3.686-10.072-2.939-9.909-15.79-17.9s-.2-.382-2.54 6.183 5.28 10.4 3.487 18.349c-1.743 7.992-.6 8.767.6 11.825 1.2 3.017-.946.489-.946.489-4.184-5.749.5-10.235-2.59-17.452-3.138-7.258-4.931-6.606-4.134-15.128s-8.074-14.679-11.959-18.512-.8 3.181-.8 3.181c5.479 16.392 7.521 3.1 2.341 23.122s-1.544 36.413-1.544 39.594-3.636-7.87-3.636-28.747 4.682-7.587-1.544-27.2-6.774-30.867-6.774-30.867C58.3 101.96 47.467 94.573 22.98 103.673S.759 127.075.015 119.933s26.3-21.561 36.713-23.478 18.978-5.1 13.549-5.1-5.728-4.037-18.729-.652-22.117.859-22.914-.403 7.82 2.569 20.273-.856c12.5-3.384 14.047-2.569 22.365-1.509s12.752-5.1 15.89-10.643 9.564-14.068 9.863-31.724c.349-18.594 4.334-25.159-1.992-22.631s-11.463 5.335-15.049 6.518c-3.636 1.183 6.731-4.887 9.819-10.514s-22.017 5.178-33.773 2.976c11.9-6.076 18.081-6.81 24.905-10.643C67.81 7.441 62.5 4.893 65.386 0c0 0 34.42 1.747 42.429 1.937s-10.368 5.178 19.22 15.821c3.985 1.631 4.533 3.548 4.533 3.548s-7.771-.734-22.863-1.223C98.244 19.633 95.4 31.214 91.221 51.4z" transform="matrix(.999 -.052 .052 .999 56.9 -4.468)" style="fill:#694b37"/>
                    </g>
                    <g data-name="Mask Group 6" transform="matrix(.84 -.545 .545 .84 235.5 18.218)" style="clip-path:url(#bnhblssfyb)">
                        <path data-name="Path 3119" d="M15.27 36.155c-2.07-1.772-4.477-2.755-6.433-4.632a21.431 21.431 0 0 1-3.373-7.636 30.233 30.233 0 0 1-.335-7.719 35.046 35.046 0 0 0 .046-3.547c.383.876.77 1.753 1.12 2.657.474 1.2.329 2.866.906 3.949.115.23.592-.209.508-.427a6.14 6.14 0 0 1-.109-1.5 12.385 12.385 0 0 0-.547-2.572A54.867 54.867 0 0 0 4.71 8.7C4.17 5.837 3.434 3.077 3.826 0a3.855 3.855 0 0 0-1.36 2.36c-.233 2.442.362 4.669.94 7.238a25.693 25.693 0 0 1 .467 2.992C1.415 19.069-1.6 25.587 1 32.576c.093.227.486-.106.425-.306a18.6 18.6 0 0 1-.6-6.91c.438 1.129 1 2.216 1.418 3.35.263.7.978 5.08 1.571 5.11-.108 0-.354.273-.192.324.043.006.083.016.123.026a.26.26 0 0 0 .288-.287 45.021 45.021 0 0 0-3.028-10.26c.129-.942.3-1.894.505-2.811.476-2.26 1.653-4.2 2.5-6.265.145 3.678-.275 7.356-.469 11.1-.016.441.635 0 .67-.308.115-1.419.284-2.83.444-4.246 0 .523 0 1.037.018 1.555a15.725 15.725 0 0 0 1.764 6.165 14.815 14.815 0 0 0 1.634 7.964c.879 1.806 2.482 4.586 4.19 5.532.1.048.313-.183.215-.248-1.5-1.131-2.576-3.4-3.543-5.051a16.77 16.77 0 0 1-1.923-7.047l.142.3c1.2 2.294 3.252 4.023 5.06 5.7 2.081 1.921 2.749 3.99 3.166 6.866.025.123.236-.036.221-.146a12.6 12.6 0 0 0-1.7-5.561 18.016 18.016 0 0 0-2.359-2.666c.5.3 1 .6 1.485.915 3.034 1.973 4.1 4.267 5.252 7.8.059.167.326-.077.3-.221-.541-2.557-1.361-5.132-3.315-6.8" transform="translate(1.43 -7.409)" style="fill:#694b37"/>
                    </g>
                    <g data-name="Mask Group 7" transform="rotate(28.02 -7.174 515.995)" style="clip-path:url(#61s55c03ac)">
                        <path data-name="Path 3120" d="M15.69 37.15c-2.13-1.821-4.6-2.831-6.61-4.76a22.02 22.02 0 0 1-3.465-7.846c-.6-2.453-.41-5.28-.344-7.931a35.992 35.992 0 0 0 .047-3.645c.394.9.792 1.8 1.15 2.73.487 1.233.338 2.945.931 4.058.118.236.608-.215.522-.439a6.307 6.307 0 0 1-.11-1.542 12.722 12.722 0 0 0-.562-2.642 56.359 56.359 0 0 0-2.409-6.19C4.284 6 3.529 3.162 3.931 0a3.961 3.961 0 0 0-1.4 2.425c-.239 2.509.372 4.8.966 7.437a26.408 26.408 0 0 1 .48 3.074C1.454 19.593-1.649 26.29 1.032 33.471c.1.233.5-.109.437-.314a19.107 19.107 0 0 1-.62-7.1c.45 1.16 1.027 2.277 1.457 3.442.27.723 1 5.22 1.614 5.25-.111 0-.364.281-.2.333.045.006.086.016.127.026a.267.267 0 0 0 .3-.295c-.493-3.828-1.8-7.037-3.111-10.542.133-.968.312-1.946.519-2.888.489-2.323 1.7-4.314 2.572-6.438.149 3.779-.282 7.558-.482 11.4-.016.453.653 0 .689-.317.119-1.458.292-2.908.457-4.363 0 .537 0 1.066.018 1.6a16.157 16.157 0 0 0 1.81 6.335A15.222 15.222 0 0 0 8.3 37.784c.9 1.855 2.551 4.712 4.305 5.684.1.049.321-.188.221-.255-1.546-1.162-2.647-3.5-3.64-5.19a17.232 17.232 0 0 1-1.976-7.241c.048.1.1.2.145.307 1.229 2.357 3.341 4.134 5.2 5.861 2.138 1.974 2.824 4.1 3.254 7.055.025.126.242-.037.227-.15a12.944 12.944 0 0 0-1.742-5.714 18.515 18.515 0 0 0-2.427-2.741c.517.313 1.027.616 1.525.94 3.117 2.027 4.208 4.384 5.4 8.015.061.172.335-.079.306-.227-.556-2.628-1.4-5.273-3.406-6.982" transform="translate(1.469 -7.613)" style="fill:#694b37"/>
                    </g>
                    <g data-name="Mask Group 11" transform="rotate(28.02 -64.884 456.177)" style="clip-path:url(#61s55c03ac)">
                        <path data-name="Path 3124" d="M15.69 37.15c-2.13-1.821-4.6-2.831-6.61-4.76a22.02 22.02 0 0 1-3.465-7.846c-.6-2.453-.41-5.28-.344-7.931a35.992 35.992 0 0 0 .047-3.645c.394.9.792 1.8 1.15 2.73.487 1.233.338 2.945.931 4.058.118.236.608-.215.522-.439a6.307 6.307 0 0 1-.11-1.542 12.722 12.722 0 0 0-.562-2.642 56.359 56.359 0 0 0-2.409-6.19C4.284 6 3.529 3.162 3.931 0a3.961 3.961 0 0 0-1.4 2.425c-.239 2.509.372 4.8.966 7.437a26.408 26.408 0 0 1 .48 3.074C1.454 19.593-1.649 26.29 1.032 33.471c.1.233.5-.109.437-.314a19.107 19.107 0 0 1-.62-7.1c.45 1.16 1.027 2.277 1.457 3.442.27.723 1 5.22 1.614 5.25-.111 0-.364.281-.2.333.045.006.086.016.127.026a.267.267 0 0 0 .3-.295c-.493-3.828-1.8-7.037-3.111-10.542.133-.968.312-1.946.519-2.888.489-2.323 1.7-4.314 2.572-6.438.149 3.779-.282 7.558-.482 11.4-.016.453.653 0 .689-.317.119-1.458.292-2.908.457-4.363 0 .537 0 1.066.018 1.6a16.157 16.157 0 0 0 1.81 6.335A15.222 15.222 0 0 0 8.3 37.784c.9 1.855 2.551 4.712 4.305 5.684.1.049.321-.188.221-.255-1.546-1.162-2.647-3.5-3.64-5.19a17.232 17.232 0 0 1-1.976-7.241c.048.1.1.2.145.307 1.229 2.357 3.341 4.134 5.2 5.861 2.138 1.974 2.824 4.1 3.254 7.055.025.126.242-.037.227-.15a12.944 12.944 0 0 0-1.742-5.714 18.515 18.515 0 0 0-2.427-2.741c.517.313 1.027.616 1.525.94 3.117 2.027 4.208 4.384 5.4 8.015.061.172.335-.079.306-.227-.556-2.628-1.4-5.273-3.406-6.982" transform="translate(1.469 -7.613)" style="fill:#694b37"/>
                    </g>
                    <g data-name="Mask Group 13" transform="rotate(19.02 -224.718 578.034)" style="clip-path:url(#4so4o2o0fd)">
                        <path data-name="Path 3126" d="M10.133 20.528c-1.376-1.006-2.971-1.564-4.269-2.63a11.381 11.381 0 0 1-2.238-4.335A14.725 14.725 0 0 1 3.4 9.18a17.017 17.017 0 0 0 .03-2.014c.254.5.511 1 .743 1.508.314.681.218 1.627.6 2.242.077.13.393-.119.337-.242a2.994 2.994 0 0 1-.071-.852 6.163 6.163 0 0 0-.363-1.46 28.6 28.6 0 0 0-1.556-3.42A13.26 13.26 0 0 1 2.539 0a2.146 2.146 0 0 0-.9 1.34 11.143 11.143 0 0 0 .621 4.11 12.656 12.656 0 0 1 .31 1.7C.939 10.827-1.065 14.527.666 18.5c.062.129.322-.06.282-.174a9.1 9.1 0 0 1-.4-3.923c.291.641.663 1.258.941 1.9.174.4.649 2.884 1.043 2.9-.072 0-.235.155-.128.184.029 0 .055.009.082.015a.162.162 0 0 0 .191-.163 22.863 22.863 0 0 0-2.009-5.827c.086-.535.2-1.076.335-1.6a18.982 18.982 0 0 1 1.661-3.553 59.507 59.507 0 0 1-.311 6.3c-.01.25.422 0 .445-.175.077-.806.189-1.607.295-2.411 0 .3 0 .589.012.883a7.982 7.982 0 0 0 1.171 3.5 7.4 7.4 0 0 0 1.084 4.523 8.112 8.112 0 0 0 2.78 3.14c.066.027.207-.1.142-.141a10.012 10.012 0 0 1-2.351-2.868 8.488 8.488 0 0 1-1.276-4l.094.17a13.73 13.73 0 0 0 3.358 3.239 5.549 5.549 0 0 1 2.1 3.9c.016.07.156-.02.146-.083a6.434 6.434 0 0 0-1.123-3.159 10.946 10.946 0 0 0-1.565-1.514c.334.173.663.34.985.52 2.013 1.12 2.718 2.423 3.486 4.429.039.095.216-.043.2-.125a6.369 6.369 0 0 0-2.2-3.858" transform="translate(.949 -4.207)" style="fill:#694b37"/>
                    </g>
                    <g data-name="Mask Group 23" transform="rotate(8.95 -93.627 1321.383)" style="clip-path:url(#4so4o2o0fd)">
                        <path data-name="Path 3136" d="M10.133 20.528c-1.376-1.006-2.971-1.564-4.269-2.63a11.381 11.381 0 0 1-2.238-4.335A14.725 14.725 0 0 1 3.4 9.18a17.017 17.017 0 0 0 .03-2.014c.254.5.511 1 .743 1.508.314.681.218 1.627.6 2.242.077.13.393-.119.337-.242a2.994 2.994 0 0 1-.071-.852 6.163 6.163 0 0 0-.363-1.46 28.6 28.6 0 0 0-1.556-3.42A13.26 13.26 0 0 1 2.539 0a2.146 2.146 0 0 0-.9 1.34 11.143 11.143 0 0 0 .621 4.11 12.656 12.656 0 0 1 .31 1.7C.939 10.827-1.065 14.527.666 18.5c.062.129.322-.06.282-.174a9.1 9.1 0 0 1-.4-3.923c.291.641.663 1.258.941 1.9.174.4.649 2.884 1.043 2.9-.072 0-.235.155-.128.184.029 0 .055.009.082.015a.162.162 0 0 0 .191-.163 22.863 22.863 0 0 0-2.009-5.827c.086-.535.2-1.076.335-1.6a18.982 18.982 0 0 1 1.661-3.553 59.507 59.507 0 0 1-.311 6.3c-.01.25.422 0 .445-.175.077-.806.189-1.607.295-2.411 0 .3 0 .589.012.883a7.982 7.982 0 0 0 1.171 3.5 7.4 7.4 0 0 0 1.084 4.523 8.112 8.112 0 0 0 2.78 3.14c.066.027.207-.1.142-.141a10.012 10.012 0 0 1-2.351-2.868 8.488 8.488 0 0 1-1.276-4l.094.17a13.73 13.73 0 0 0 3.358 3.239 5.549 5.549 0 0 1 2.1 3.9c.016.07.156-.02.146-.083a6.434 6.434 0 0 0-1.123-3.159 10.946 10.946 0 0 0-1.565-1.514c.334.173.663.34.985.52 2.013 1.12 2.718 2.423 3.486 4.429.039.095.216-.043.2-.125a6.369 6.369 0 0 0-2.2-3.858" transform="translate(.949 -4.207)" style="fill:#694b37"/>
                    </g>
                    <g data-name="Mask Group 24" transform="rotate(8.95 -283.303 1256.672)" style="clip-path:url(#4so4o2o0fd)">
                        <path data-name="Path 3137" d="M10.133 20.528c-1.376-1.006-2.971-1.564-4.269-2.63a11.381 11.381 0 0 1-2.238-4.335A14.725 14.725 0 0 1 3.4 9.18a17.017 17.017 0 0 0 .03-2.014c.254.5.511 1 .743 1.508.314.681.218 1.627.6 2.242.077.13.393-.119.337-.242a2.994 2.994 0 0 1-.071-.852 6.163 6.163 0 0 0-.363-1.46 28.6 28.6 0 0 0-1.556-3.42A13.26 13.26 0 0 1 2.539 0a2.146 2.146 0 0 0-.9 1.34 11.143 11.143 0 0 0 .621 4.11 12.656 12.656 0 0 1 .31 1.7C.939 10.827-1.065 14.527.666 18.5c.062.129.322-.06.282-.174a9.1 9.1 0 0 1-.4-3.923c.291.641.663 1.258.941 1.9.174.4.649 2.884 1.043 2.9-.072 0-.235.155-.128.184.029 0 .055.009.082.015a.162.162 0 0 0 .191-.163 22.863 22.863 0 0 0-2.009-5.827c.086-.535.2-1.076.335-1.6a18.982 18.982 0 0 1 1.661-3.553 59.507 59.507 0 0 1-.311 6.3c-.01.25.422 0 .445-.175.077-.806.189-1.607.295-2.411 0 .3 0 .589.012.883a7.982 7.982 0 0 0 1.171 3.5 7.4 7.4 0 0 0 1.084 4.523 8.112 8.112 0 0 0 2.78 3.14c.066.027.207-.1.142-.141a10.012 10.012 0 0 1-2.351-2.868 8.488 8.488 0 0 1-1.276-4l.094.17a13.73 13.73 0 0 0 3.358 3.239 5.549 5.549 0 0 1 2.1 3.9c.016.07.156-.02.146-.083a6.434 6.434 0 0 0-1.123-3.159 10.946 10.946 0 0 0-1.565-1.514c.334.173.663.34.985.52 2.013 1.12 2.718 2.423 3.486 4.429.039.095.216-.043.2-.125a6.369 6.369 0 0 0-2.2-3.858" transform="translate(.949 -4.207)" style="fill:#694b37"/>
                    </g>
                    <g data-name="Mask Group 25" transform="rotate(8.95 -141.934 1486.161)" style="clip-path:url(#4so4o2o0fd)">
                        <path data-name="Path 3138" d="M10.133 20.528c-1.376-1.006-2.971-1.564-4.269-2.63a11.381 11.381 0 0 1-2.238-4.335A14.725 14.725 0 0 1 3.4 9.18a17.017 17.017 0 0 0 .03-2.014c.254.5.511 1 .743 1.508.314.681.218 1.627.6 2.242.077.13.393-.119.337-.242a2.994 2.994 0 0 1-.071-.852 6.163 6.163 0 0 0-.363-1.46 28.6 28.6 0 0 0-1.556-3.42A13.26 13.26 0 0 1 2.539 0a2.146 2.146 0 0 0-.9 1.34 11.143 11.143 0 0 0 .621 4.11 12.656 12.656 0 0 1 .31 1.7C.939 10.827-1.065 14.527.666 18.5c.062.129.322-.06.282-.174a9.1 9.1 0 0 1-.4-3.923c.291.641.663 1.258.941 1.9.174.4.649 2.884 1.043 2.9-.072 0-.235.155-.128.184.029 0 .055.009.082.015a.162.162 0 0 0 .191-.163 22.863 22.863 0 0 0-2.009-5.827c.086-.535.2-1.076.335-1.6a18.982 18.982 0 0 1 1.661-3.553 59.507 59.507 0 0 1-.311 6.3c-.01.25.422 0 .445-.175.077-.806.189-1.607.295-2.411 0 .3 0 .589.012.883a7.982 7.982 0 0 0 1.171 3.5 7.4 7.4 0 0 0 1.084 4.523 8.112 8.112 0 0 0 2.78 3.14c.066.027.207-.1.142-.141a10.012 10.012 0 0 1-2.351-2.868 8.488 8.488 0 0 1-1.276-4l.094.17a13.73 13.73 0 0 0 3.358 3.239 5.549 5.549 0 0 1 2.1 3.9c.016.07.156-.02.146-.083a6.434 6.434 0 0 0-1.123-3.159 10.946 10.946 0 0 0-1.565-1.514c.334.173.663.34.985.52 2.013 1.12 2.718 2.423 3.486 4.429.039.095.216-.043.2-.125a6.369 6.369 0 0 0-2.2-3.858" transform="translate(.949 -4.207)" style="fill:#694b37"/>
                    </g>
                    <g data-name="Mask Group 26" transform="rotate(40.02 -62.514 247.685)" style="clip-path:url(#4so4o2o0fd)">
                        <path data-name="Path 3139" d="M10.133 20.528c-1.376-1.006-2.971-1.564-4.269-2.63a11.381 11.381 0 0 1-2.238-4.335A14.725 14.725 0 0 1 3.4 9.18a17.017 17.017 0 0 0 .03-2.014c.254.5.511 1 .743 1.508.314.681.218 1.627.6 2.242.077.13.393-.119.337-.242a2.994 2.994 0 0 1-.071-.852 6.163 6.163 0 0 0-.363-1.46 28.6 28.6 0 0 0-1.556-3.42A13.26 13.26 0 0 1 2.539 0a2.146 2.146 0 0 0-.9 1.34 11.143 11.143 0 0 0 .621 4.11 12.656 12.656 0 0 1 .31 1.7C.939 10.827-1.065 14.527.666 18.5c.062.129.322-.06.282-.174a9.1 9.1 0 0 1-.4-3.923c.291.641.663 1.258.941 1.9.174.4.649 2.884 1.043 2.9-.072 0-.235.155-.128.184.029 0 .055.009.082.015a.162.162 0 0 0 .191-.163 22.863 22.863 0 0 0-2.009-5.827c.086-.535.2-1.076.335-1.6a18.982 18.982 0 0 1 1.661-3.553 59.507 59.507 0 0 1-.311 6.3c-.01.25.422 0 .445-.175.077-.806.189-1.607.295-2.411 0 .3 0 .589.012.883a7.982 7.982 0 0 0 1.171 3.5 7.4 7.4 0 0 0 1.084 4.523 8.112 8.112 0 0 0 2.78 3.14c.066.027.207-.1.142-.141a10.012 10.012 0 0 1-2.351-2.868 8.488 8.488 0 0 1-1.276-4l.094.17a13.73 13.73 0 0 0 3.358 3.239 5.549 5.549 0 0 1 2.1 3.9c.016.07.156-.02.146-.083a6.434 6.434 0 0 0-1.123-3.159 10.946 10.946 0 0 0-1.565-1.514c.334.173.663.34.985.52 2.013 1.12 2.718 2.423 3.486 4.429.039.095.216-.043.2-.125a6.369 6.369 0 0 0-2.2-3.858" transform="translate(.949 -4.207)" style="fill:#694b37"/>
                    </g>
                    <g data-name="Mask Group 28" transform="rotate(82.02 -36.516 121.902)" style="clip-path:url(#4so4o2o0fd)">
                        <path data-name="Path 3141" d="M10.133 20.528c-1.376-1.006-2.971-1.564-4.269-2.63a11.381 11.381 0 0 1-2.238-4.335A14.725 14.725 0 0 1 3.4 9.18a17.017 17.017 0 0 0 .03-2.014c.254.5.511 1 .743 1.508.314.681.218 1.627.6 2.242.077.13.393-.119.337-.242a2.994 2.994 0 0 1-.071-.852 6.163 6.163 0 0 0-.363-1.46 28.6 28.6 0 0 0-1.556-3.42A13.26 13.26 0 0 1 2.539 0a2.146 2.146 0 0 0-.9 1.34 11.143 11.143 0 0 0 .621 4.11 12.656 12.656 0 0 1 .31 1.7C.939 10.827-1.065 14.527.666 18.5c.062.129.322-.06.282-.174a9.1 9.1 0 0 1-.4-3.923c.291.641.663 1.258.941 1.9.174.4.649 2.884 1.043 2.9-.072 0-.235.155-.128.184.029 0 .055.009.082.015a.162.162 0 0 0 .191-.163 22.863 22.863 0 0 0-2.009-5.827c.086-.535.2-1.076.335-1.6a18.982 18.982 0 0 1 1.661-3.553 59.507 59.507 0 0 1-.311 6.3c-.01.25.422 0 .445-.175.077-.806.189-1.607.295-2.411 0 .3 0 .589.012.883a7.982 7.982 0 0 0 1.171 3.5 7.4 7.4 0 0 0 1.084 4.523 8.112 8.112 0 0 0 2.78 3.14c.066.027.207-.1.142-.141a10.012 10.012 0 0 1-2.351-2.868 8.488 8.488 0 0 1-1.276-4l.094.17a13.73 13.73 0 0 0 3.358 3.239 5.549 5.549 0 0 1 2.1 3.9c.016.07.156-.02.146-.083a6.434 6.434 0 0 0-1.123-3.159 10.946 10.946 0 0 0-1.565-1.514c.334.173.663.34.985.52 2.013 1.12 2.718 2.423 3.486 4.429.039.095.216-.043.2-.125a6.369 6.369 0 0 0-2.2-3.858" transform="translate(.949 -4.207)" style="fill:#694b37"/>
                    </g>
                    <g data-name="Mask Group 30" transform="matrix(.921 -.39 .39 .921 265.457 13.576)" style="clip-path:url(#baoax23sve)">
                        <path data-name="Path 3143" d="M10.94 22.163c-1.486-1.086-3.208-1.689-4.609-2.84a12.288 12.288 0 0 1-2.416-4.681 15.9 15.9 0 0 1-.24-4.731 18.382 18.382 0 0 0 .033-2.175c.275.537.552 1.074.8 1.629.339.735.236 1.757.649 2.421.083.141.424-.128.364-.262a3.234 3.234 0 0 1-.077-.92 6.653 6.653 0 0 0-.392-1.576 30.872 30.872 0 0 0-1.68-3.692A14.314 14.314 0 0 1 2.741 0a2.317 2.317 0 0 0-.974 1.447 12.029 12.029 0 0 0 .674 4.437 13.666 13.666 0 0 1 .334 1.834C1.014 11.689-1.15 15.684.719 19.968c.067.139.348-.065.3-.188a9.824 9.824 0 0 1-.432-4.235c.314.692.716 1.359 1.016 2.053.188.431.7 3.114 1.126 3.132-.078 0-.254.167-.138.2.031 0 .06.01.088.016a.175.175 0 0 0 .206-.176 24.683 24.683 0 0 0-2.164-6.29c.093-.577.217-1.161.362-1.723a20.491 20.491 0 0 1 1.793-3.84 64.246 64.246 0 0 1-.336 6.8c-.011.27.455 0 .48-.189.083-.87.2-1.735.318-2.6 0 .32 0 .636.013.953a8.618 8.618 0 0 0 1.264 3.779 7.993 7.993 0 0 0 1.171 4.882 8.758 8.758 0 0 0 3 3.391c.071.029.224-.112.154-.152a10.809 10.809 0 0 1-2.538-3.1 9.164 9.164 0 0 1-1.378-4.32c.033.062.068.121.1.183a14.823 14.823 0 0 0 3.625 3.5 5.991 5.991 0 0 1 2.269 4.209c.018.075.169-.022.158-.09a6.945 6.945 0 0 0-1.215-3.409 11.816 11.816 0 0 0-1.69-1.634c.361.186.716.367 1.064.561 2.173 1.209 2.934 2.616 3.763 4.782.043.1.234-.047.214-.135a6.876 6.876 0 0 0-2.375-4.166" transform="translate(1.024 -4.542)" style="fill:#694b37"/>
                    </g>
                    <g data-name="Mask Group 8" transform="rotate(-80.97 175.698 -116.856)" style="clip-path:url(#5yzebdmkif)">
                        <path data-name="Path 3121" d="M2.5 27.373c1.562-1.342 3.373-2.086 4.847-3.507a16.265 16.265 0 0 0 2.541-5.781 23 23 0 0 0 .252-5.844 26.664 26.664 0 0 1-.04-2.686c-.289.663-.58 1.327-.843 2.011-.357.908-.248 2.17-.683 2.99-.087.174-.446-.158-.382-.323a4.668 4.668 0 0 0 .084-1.133 9.414 9.414 0 0 1 .412-1.947 41.64 41.64 0 0 1 1.766-4.561A20.6 20.6 0 0 0 11.121 0a2.922 2.922 0 0 1 1.024 1.787 17.253 17.253 0 0 1-.708 5.48 19.541 19.541 0 0 0-.352 2.265c1.851 4.9 4.127 9.839 2.161 15.13-.07.172-.366-.08-.32-.232a14.144 14.144 0 0 0 .454-5.23c-.33.855-.753 1.678-1.068 2.536-.2.532-.737 3.846-1.184 3.869.082 0 .267.207.145.245-.033 0-.063.012-.093.019a.2.2 0 0 1-.217-.217 34.208 34.208 0 0 1 2.281-7.767c-.1-.713-.229-1.434-.381-2.128a27.541 27.541 0 0 0-1.886-4.743c-.109 2.784.207 5.569.353 8.4.012.334-.479 0-.505-.234-.087-1.074-.214-2.143-.335-3.215 0 .4 0 .785-.013 1.177a11.949 11.949 0 0 1-1.329 4.668 11.263 11.263 0 0 1-1.23 6.03c-.662 1.367-1.87 3.472-3.157 4.188-.075.036-.235-.138-.162-.188 1.134-.856 1.94-2.578 2.669-3.824a12.745 12.745 0 0 0 1.449-5.335l-.107.226a17.072 17.072 0 0 1-3.81 4.319 7.836 7.836 0 0 0-2.385 5.2c-.019.093-.178-.027-.166-.111A9.571 9.571 0 0 1 3.525 28.1 13.62 13.62 0 0 1 5.3 26.086c-.379.23-.753.454-1.118.693C1.9 28.272 1.1 30.009.226 32.684c-.045.127-.246-.058-.225-.167a8.934 8.934 0 0 1 2.5-5.145" transform="translate(2.03 -5.61)" style="fill:#694b37"/>
                    </g>
                    <g data-name="Mask Group 22" transform="rotate(-7.91 733.539 -627.004)" style="clip-path:url(#5yzebdmkif)">
                        <path data-name="Path 3135" d="M2.5 27.373c1.562-1.342 3.373-2.086 4.847-3.507a16.265 16.265 0 0 0 2.541-5.781 23 23 0 0 0 .252-5.844 26.664 26.664 0 0 1-.04-2.686c-.289.663-.58 1.327-.843 2.011-.357.908-.248 2.17-.683 2.99-.087.174-.446-.158-.382-.323a4.668 4.668 0 0 0 .084-1.133 9.414 9.414 0 0 1 .412-1.947 41.64 41.64 0 0 1 1.766-4.561A20.6 20.6 0 0 0 11.121 0a2.922 2.922 0 0 1 1.024 1.787 17.253 17.253 0 0 1-.708 5.48 19.541 19.541 0 0 0-.352 2.265c1.851 4.9 4.127 9.839 2.161 15.13-.07.172-.366-.08-.32-.232a14.144 14.144 0 0 0 .454-5.23c-.33.855-.753 1.678-1.068 2.536-.2.532-.737 3.846-1.184 3.869.082 0 .267.207.145.245-.033 0-.063.012-.093.019a.2.2 0 0 1-.217-.217 34.208 34.208 0 0 1 2.281-7.767c-.1-.713-.229-1.434-.381-2.128a27.541 27.541 0 0 0-1.886-4.743c-.109 2.784.207 5.569.353 8.4.012.334-.479 0-.505-.234-.087-1.074-.214-2.143-.335-3.215 0 .4 0 .785-.013 1.177a11.949 11.949 0 0 1-1.329 4.668 11.263 11.263 0 0 1-1.23 6.03c-.662 1.367-1.87 3.472-3.157 4.188-.075.036-.235-.138-.162-.188 1.134-.856 1.94-2.578 2.669-3.824a12.745 12.745 0 0 0 1.449-5.335l-.107.226a17.072 17.072 0 0 1-3.81 4.319 7.836 7.836 0 0 0-2.385 5.2c-.019.093-.178-.027-.166-.111A9.571 9.571 0 0 1 3.525 28.1 13.62 13.62 0 0 1 5.3 26.086c-.379.23-.753.454-1.118.693C1.9 28.272 1.1 30.009.226 32.684c-.045.127-.246-.058-.225-.167a8.934 8.934 0 0 1 2.5-5.145" transform="translate(2.03 -5.61)" style="fill:#694b37"/>
                    </g>
                    <g data-name="Mask Group 9" transform="rotate(-80.97 184.194 -99.213)" style="clip-path:url(#5yzebdmkif)">
                        <path data-name="Path 3122" d="M2.5 27.373c1.562-1.342 3.373-2.086 4.847-3.507a16.265 16.265 0 0 0 2.541-5.781 23 23 0 0 0 .252-5.844 26.664 26.664 0 0 1-.04-2.686c-.289.663-.58 1.327-.843 2.011-.357.908-.248 2.17-.683 2.99-.087.174-.446-.158-.382-.323a4.668 4.668 0 0 0 .084-1.133 9.414 9.414 0 0 1 .412-1.947 41.64 41.64 0 0 1 1.766-4.561A20.6 20.6 0 0 0 11.121 0a2.922 2.922 0 0 1 1.024 1.787 17.253 17.253 0 0 1-.708 5.48 19.541 19.541 0 0 0-.352 2.265c1.851 4.9 4.127 9.839 2.161 15.13-.07.172-.366-.08-.32-.232a14.144 14.144 0 0 0 .454-5.23c-.33.855-.753 1.678-1.068 2.536-.2.532-.737 3.846-1.184 3.869.082 0 .267.207.145.245-.033 0-.063.012-.093.019a.2.2 0 0 1-.217-.217 34.208 34.208 0 0 1 2.281-7.767c-.1-.713-.229-1.434-.381-2.128a27.541 27.541 0 0 0-1.886-4.743c-.109 2.784.207 5.569.353 8.4.012.334-.479 0-.505-.234-.087-1.074-.214-2.143-.335-3.215 0 .4 0 .785-.013 1.177a11.949 11.949 0 0 1-1.329 4.668 11.263 11.263 0 0 1-1.23 6.03c-.662 1.367-1.87 3.472-3.157 4.188-.075.036-.235-.138-.162-.188 1.134-.856 1.94-2.578 2.669-3.824a12.745 12.745 0 0 0 1.449-5.335l-.107.226a17.072 17.072 0 0 1-3.81 4.319 7.836 7.836 0 0 0-2.385 5.2c-.019.093-.178-.027-.166-.111A9.571 9.571 0 0 1 3.525 28.1 13.62 13.62 0 0 1 5.3 26.086c-.379.23-.753.454-1.118.693C1.9 28.272 1.1 30.009.226 32.684c-.045.127-.246-.058-.225-.167a8.934 8.934 0 0 1 2.5-5.145" transform="translate(2.03 -5.61)" style="fill:#694b37"/>
                    </g>
                    <g data-name="Mask Group 16" transform="rotate(-12.98 494.777 -222.258)" style="clip-path:url(#5yzebdmkif)">
                        <path data-name="Path 3129" d="M2.5 27.373c1.562-1.342 3.373-2.086 4.847-3.507a16.265 16.265 0 0 0 2.541-5.781 23 23 0 0 0 .252-5.844 26.664 26.664 0 0 1-.04-2.686c-.289.663-.58 1.327-.843 2.011-.357.908-.248 2.17-.683 2.99-.087.174-.446-.158-.382-.323a4.668 4.668 0 0 0 .084-1.133 9.414 9.414 0 0 1 .412-1.947 41.64 41.64 0 0 1 1.766-4.561A20.6 20.6 0 0 0 11.121 0a2.922 2.922 0 0 1 1.024 1.787 17.253 17.253 0 0 1-.708 5.48 19.541 19.541 0 0 0-.352 2.265c1.851 4.9 4.127 9.839 2.161 15.13-.07.172-.366-.08-.32-.232a14.144 14.144 0 0 0 .454-5.23c-.33.855-.753 1.678-1.068 2.536-.2.532-.737 3.846-1.184 3.869.082 0 .267.207.145.245-.033 0-.063.012-.093.019a.2.2 0 0 1-.217-.217 34.208 34.208 0 0 1 2.281-7.767c-.1-.713-.229-1.434-.381-2.128a27.541 27.541 0 0 0-1.886-4.743c-.109 2.784.207 5.569.353 8.4.012.334-.479 0-.505-.234-.087-1.074-.214-2.143-.335-3.215 0 .4 0 .785-.013 1.177a11.949 11.949 0 0 1-1.329 4.668 11.263 11.263 0 0 1-1.23 6.03c-.662 1.367-1.87 3.472-3.157 4.188-.075.036-.235-.138-.162-.188 1.134-.856 1.94-2.578 2.669-3.824a12.745 12.745 0 0 0 1.449-5.335l-.107.226a17.072 17.072 0 0 1-3.81 4.319 7.836 7.836 0 0 0-2.385 5.2c-.019.093-.178-.027-.166-.111A9.571 9.571 0 0 1 3.525 28.1 13.62 13.62 0 0 1 5.3 26.086c-.379.23-.753.454-1.118.693C1.9 28.272 1.1 30.009.226 32.684c-.045.127-.246-.058-.225-.167a8.934 8.934 0 0 1 2.5-5.145" transform="translate(2.03 -5.61)" style="fill:#694b37"/>
                    </g>
                    <g data-name="Mask Group 17" transform="matrix(1 -.035 .035 1 34.91 62.681)" style="clip-path:url(#5yzebdmkif)">
                        <path data-name="Path 3130" d="M2.5 27.373c1.562-1.342 3.373-2.086 4.847-3.507a16.265 16.265 0 0 0 2.541-5.781 23 23 0 0 0 .252-5.844 26.664 26.664 0 0 1-.04-2.686c-.289.663-.58 1.327-.843 2.011-.357.908-.248 2.17-.683 2.99-.087.174-.446-.158-.382-.323a4.668 4.668 0 0 0 .084-1.133 9.414 9.414 0 0 1 .412-1.947 41.64 41.64 0 0 1 1.766-4.561A20.6 20.6 0 0 0 11.121 0a2.922 2.922 0 0 1 1.024 1.787 17.253 17.253 0 0 1-.708 5.48 19.541 19.541 0 0 0-.352 2.265c1.851 4.9 4.127 9.839 2.161 15.13-.07.172-.366-.08-.32-.232a14.144 14.144 0 0 0 .454-5.23c-.33.855-.753 1.678-1.068 2.536-.2.532-.737 3.846-1.184 3.869.082 0 .267.207.145.245-.033 0-.063.012-.093.019a.2.2 0 0 1-.217-.217 34.208 34.208 0 0 1 2.281-7.767c-.1-.713-.229-1.434-.381-2.128a27.541 27.541 0 0 0-1.886-4.743c-.109 2.784.207 5.569.353 8.4.012.334-.479 0-.505-.234-.087-1.074-.214-2.143-.335-3.215 0 .4 0 .785-.013 1.177a11.949 11.949 0 0 1-1.329 4.668 11.263 11.263 0 0 1-1.23 6.03c-.662 1.367-1.87 3.472-3.157 4.188-.075.036-.235-.138-.162-.188 1.134-.856 1.94-2.578 2.669-3.824a12.745 12.745 0 0 0 1.449-5.335l-.107.226a17.072 17.072 0 0 1-3.81 4.319 7.836 7.836 0 0 0-2.385 5.2c-.019.093-.178-.027-.166-.111A9.571 9.571 0 0 1 3.525 28.1 13.62 13.62 0 0 1 5.3 26.086c-.379.23-.753.454-1.118.693C1.9 28.272 1.1 30.009.226 32.684c-.045.127-.246-.058-.225-.167a8.934 8.934 0 0 1 2.5-5.145" transform="translate(2.03 -5.61)" style="fill:#694b37"/>
                    </g>
                    <g data-name="Mask Group 31" transform="rotate(13.02 -82.04 294.404)" style="clip-path:url(#955w6znt5g)">
                        <path data-name="Path 3144" d="M1.808 19.807c1.13-.971 2.441-1.509 3.507-2.538a11.769 11.769 0 0 0 1.839-4.183 16.642 16.642 0 0 0 .182-4.229 19.291 19.291 0 0 1-.025-1.943c-.209.48-.42.96-.61 1.455-.258.657-.179 1.57-.494 2.163-.063.126-.323-.114-.277-.234a3.379 3.379 0 0 0 .058-.822 6.812 6.812 0 0 1 .3-1.409 30.133 30.133 0 0 1 1.278-3.3A14.905 14.905 0 0 0 8.047 0a2.114 2.114 0 0 1 .741 1.293 12.483 12.483 0 0 1-.512 3.965A14.145 14.145 0 0 0 8.021 6.9c1.34 3.549 2.986 7.119 1.564 10.948-.051.124-.265-.058-.232-.168a10.235 10.235 0 0 0 .329-3.785c-.239.619-.545 1.214-.773 1.835-.143.385-.533 2.783-.857 2.8.059 0 .193.15.1.177-.024 0-.045.009-.067.014a.142.142 0 0 1-.157-.157 24.753 24.753 0 0 1 1.651-5.62 19.975 19.975 0 0 0-.275-1.54 19.927 19.927 0 0 0-1.36-3.435c-.079 2.015.15 4.03.256 6.079.009.241-.346 0-.365-.169-.063-.777-.155-1.551-.242-2.326 0 .286 0 .568-.01.852a8.646 8.646 0 0 1-.962 3.378 8.15 8.15 0 0 1-.891 4.363 7.566 7.566 0 0 1-2.284 3.03c-.054.026-.17-.1-.117-.136a9.508 9.508 0 0 0 1.931-2.767 9.222 9.222 0 0 0 1.049-3.86l-.077.164A12.354 12.354 0 0 1 3.473 19.7a5.67 5.67 0 0 0-1.726 3.762c-.013.067-.128-.02-.12-.08a6.926 6.926 0 0 1 .924-3.046 9.857 9.857 0 0 1 1.286-1.46c-.274.167-.545.328-.809.5C1.373 20.457.794 21.714.164 23.65c-.032.092-.178-.042-.163-.121a6.464 6.464 0 0 1 1.807-3.723" transform="translate(1.469 -4.059)" style="fill:#694b37"/>
                    </g>
                    <g data-name="Mask Group 32" transform="rotate(13.02 .767 431.141)" style="clip-path:url(#955w6znt5g)">
                        <path data-name="Path 3145" d="M1.808 19.807c1.13-.971 2.441-1.509 3.507-2.538a11.769 11.769 0 0 0 1.839-4.183 16.642 16.642 0 0 0 .182-4.229 19.291 19.291 0 0 1-.025-1.943c-.209.48-.42.96-.61 1.455-.258.657-.179 1.57-.494 2.163-.063.126-.323-.114-.277-.234a3.379 3.379 0 0 0 .058-.822 6.812 6.812 0 0 1 .3-1.409 30.133 30.133 0 0 1 1.278-3.3A14.905 14.905 0 0 0 8.047 0a2.114 2.114 0 0 1 .741 1.293 12.483 12.483 0 0 1-.512 3.965A14.145 14.145 0 0 0 8.021 6.9c1.34 3.549 2.986 7.119 1.564 10.948-.051.124-.265-.058-.232-.168a10.235 10.235 0 0 0 .329-3.785c-.239.619-.545 1.214-.773 1.835-.143.385-.533 2.783-.857 2.8.059 0 .193.15.1.177-.024 0-.045.009-.067.014a.142.142 0 0 1-.157-.157 24.753 24.753 0 0 1 1.651-5.62 19.975 19.975 0 0 0-.275-1.54 19.927 19.927 0 0 0-1.36-3.435c-.079 2.015.15 4.03.256 6.079.009.241-.346 0-.365-.169-.063-.777-.155-1.551-.242-2.326 0 .286 0 .568-.01.852a8.646 8.646 0 0 1-.962 3.378 8.15 8.15 0 0 1-.891 4.363 7.566 7.566 0 0 1-2.284 3.03c-.054.026-.17-.1-.117-.136a9.508 9.508 0 0 0 1.931-2.767 9.222 9.222 0 0 0 1.049-3.86l-.077.164A12.354 12.354 0 0 1 3.473 19.7a5.67 5.67 0 0 0-1.726 3.762c-.013.067-.128-.02-.12-.08a6.926 6.926 0 0 1 .924-3.046 9.857 9.857 0 0 1 1.286-1.46c-.274.167-.545.328-.809.5C1.373 20.457.794 21.714.164 23.65c-.032.092-.178-.042-.163-.121a6.464 6.464 0 0 1 1.807-3.723" transform="translate(1.469 -4.059)" style="fill:#694b37"/>
                    </g>
                    <g data-name="Mask Group 21" transform="rotate(25.02 -81.017 52.2)" style="clip-path:url(#ncw9it069h)">
                        <path data-name="Path 3134" d="M2.045 22.405c1.279-1.1 2.761-1.708 3.967-2.871a13.313 13.313 0 0 0 2.08-4.734 18.826 18.826 0 0 0 .208-4.781 21.835 21.835 0 0 1-.028-2.2c-.236.543-.475 1.086-.69 1.646-.292.743-.2 1.776-.559 2.447-.071.142-.365-.129-.313-.265a3.823 3.823 0 0 0 .066-.93 7.7 7.7 0 0 1 .337-1.594 34.083 34.083 0 0 1 1.444-3.73A16.862 16.862 0 0 0 9.1 0a2.392 2.392 0 0 1 .838 1.463 14.122 14.122 0 0 1-.58 4.486A15.99 15.99 0 0 0 9.073 7.8c1.515 4.014 3.378 8.053 1.769 12.385-.057.141-.3-.065-.262-.19a11.577 11.577 0 0 0 .372-4.282c-.27.7-.616 1.373-.875 2.076-.162.436-.6 3.148-.969 3.167.067 0 .218.169.119.2-.027 0-.051.01-.076.016A.161.161 0 0 1 8.974 21a28 28 0 0 1 1.867-6.358 22.636 22.636 0 0 0-.311-1.742 22.545 22.545 0 0 0-1.544-3.886c-.089 2.279.169 4.558.289 6.876.01.273-.392 0-.413-.191-.071-.879-.175-1.754-.274-2.631 0 .324 0 .643-.011.964a9.78 9.78 0 0 1-1.088 3.821 9.219 9.219 0 0 1-1.008 4.935c-.542 1.119-1.53 2.842-2.581 3.428-.061.03-.193-.113-.132-.154a10.755 10.755 0 0 0 2.184-3.13 10.432 10.432 0 0 0 1.186-4.367l-.087.185a13.974 13.974 0 0 1-3.12 3.535 6.414 6.414 0 0 0-1.955 4.255c-.015.076-.145-.022-.136-.091A7.835 7.835 0 0 1 2.885 23a11.148 11.148 0 0 1 1.455-1.648c-.31.188-.616.372-.915.567C1.553 23.141.9 24.563.185 26.753c-.037.1-.2-.047-.184-.137a7.312 7.312 0 0 1 2.044-4.211" transform="translate(1.662 -4.592)" style="fill:#694b37"/>
                    </g>
                    <g data-name="Mask Group 10" transform="rotate(-80.97 147.82 -78.278)" style="clip-path:url(#5yzebdmkif)">
                        <path data-name="Path 3123" d="M2.5 27.373c1.562-1.342 3.373-2.086 4.847-3.507a16.265 16.265 0 0 0 2.541-5.781 23 23 0 0 0 .252-5.844 26.664 26.664 0 0 1-.04-2.686c-.289.663-.58 1.327-.843 2.011-.357.908-.248 2.17-.683 2.99-.087.174-.446-.158-.382-.323a4.668 4.668 0 0 0 .084-1.133 9.414 9.414 0 0 1 .412-1.947 41.64 41.64 0 0 1 1.766-4.561A20.6 20.6 0 0 0 11.121 0a2.922 2.922 0 0 1 1.024 1.787 17.253 17.253 0 0 1-.708 5.48 19.541 19.541 0 0 0-.352 2.265c1.851 4.9 4.127 9.839 2.161 15.13-.07.172-.366-.08-.32-.232a14.144 14.144 0 0 0 .454-5.23c-.33.855-.753 1.678-1.068 2.536-.2.532-.737 3.846-1.184 3.869.082 0 .267.207.145.245-.033 0-.063.012-.093.019a.2.2 0 0 1-.217-.217 34.208 34.208 0 0 1 2.281-7.767c-.1-.713-.229-1.434-.381-2.128a27.541 27.541 0 0 0-1.886-4.743c-.109 2.784.207 5.569.353 8.4.012.334-.479 0-.505-.234-.087-1.074-.214-2.143-.335-3.215 0 .4 0 .785-.013 1.177a11.949 11.949 0 0 1-1.329 4.668 11.263 11.263 0 0 1-1.23 6.03c-.662 1.367-1.87 3.472-3.157 4.188-.075.036-.235-.138-.162-.188 1.134-.856 1.94-2.578 2.669-3.824a12.745 12.745 0 0 0 1.449-5.335l-.107.226a17.072 17.072 0 0 1-3.81 4.319 7.836 7.836 0 0 0-2.385 5.2c-.019.093-.178-.027-.166-.111A9.571 9.571 0 0 1 3.525 28.1 13.62 13.62 0 0 1 5.3 26.086c-.379.23-.753.454-1.118.693C1.9 28.272 1.1 30.009.226 32.684c-.045.127-.246-.058-.225-.167a8.934 8.934 0 0 1 2.5-5.145" transform="translate(2.03 -5.61)" style="fill:#694b37"/>
                    </g>
                    <g data-name="Mask Group 12" transform="rotate(-80.97 146.18 -40.847)" style="clip-path:url(#5yzebdmkif)">
                        <path data-name="Path 3125" d="M2.5 27.373c1.562-1.342 3.373-2.086 4.847-3.507a16.265 16.265 0 0 0 2.541-5.781 23 23 0 0 0 .252-5.844 26.664 26.664 0 0 1-.04-2.686c-.289.663-.58 1.327-.843 2.011-.357.908-.248 2.17-.683 2.99-.087.174-.446-.158-.382-.323a4.668 4.668 0 0 0 .084-1.133 9.414 9.414 0 0 1 .412-1.947 41.64 41.64 0 0 1 1.766-4.561c.182-.97.393-1.924.568-3.042A12.6 12.6 0 0 0 11.121 0a2.922 2.922 0 0 1 1.024 1.787 17.253 17.253 0 0 1-.708 5.48 19.541 19.541 0 0 0-.352 2.265c1.851 4.9 4.127 9.839 2.161 15.13-.07.172-.366-.08-.32-.232a14.144 14.144 0 0 0 .454-5.23c-.33.855-.753 1.678-1.068 2.536-.2.532-.737 3.846-1.184 3.869.082 0 .267.207.145.245-.033 0-.063.012-.093.019a.2.2 0 0 1-.217-.217 34.208 34.208 0 0 1 2.281-7.767c-.1-.713-.229-1.434-.381-2.128a27.541 27.541 0 0 0-1.886-4.743c-.109 2.784.207 5.569.353 8.4.012.334-.479 0-.505-.234-.087-1.074-.214-2.143-.335-3.215 0 .4 0 .785-.013 1.177a11.949 11.949 0 0 1-1.329 4.668 11.263 11.263 0 0 1-1.23 6.03c-.662 1.367-1.87 3.472-3.157 4.188-.075.036-.235-.138-.162-.188 1.134-.856 1.94-2.578 2.669-3.824a12.745 12.745 0 0 0 1.449-5.335l-.107.226a17.072 17.072 0 0 1-3.81 4.319 7.836 7.836 0 0 0-2.385 5.2c-.019.093-.178-.027-.166-.111A9.571 9.571 0 0 1 3.525 28.1 13.62 13.62 0 0 1 5.3 26.086c-.379.23-.753.454-1.118.693C1.9 28.272 1.1 30.009.226 32.684c-.045.127-.246-.058-.225-.167a8.934 8.934 0 0 1 2.5-5.145" transform="translate(2.03 -5.61)" style="fill:#694b37"/>
                    </g>
                    <g data-name="Mask Group 27" transform="rotate(-52.98 199.271 -76.98)" style="clip-path:url(#5yzebdmkif)">
                        <path data-name="Path 3140" d="M2.5 27.373c1.562-1.342 3.373-2.086 4.847-3.507a16.265 16.265 0 0 0 2.541-5.781 23 23 0 0 0 .252-5.844 26.664 26.664 0 0 1-.04-2.686c-.289.663-.58 1.327-.843 2.011-.357.908-.248 2.17-.683 2.99-.087.174-.446-.158-.382-.323a4.668 4.668 0 0 0 .084-1.133 9.414 9.414 0 0 1 .412-1.947 41.64 41.64 0 0 1 1.766-4.561A20.6 20.6 0 0 0 11.121 0a2.922 2.922 0 0 1 1.024 1.787 17.253 17.253 0 0 1-.708 5.48 19.541 19.541 0 0 0-.352 2.265c1.851 4.9 4.127 9.839 2.161 15.13-.07.172-.366-.08-.32-.232a14.144 14.144 0 0 0 .454-5.23c-.33.855-.753 1.678-1.068 2.536-.2.532-.737 3.846-1.184 3.869.082 0 .267.207.145.245-.033 0-.063.012-.093.019a.2.2 0 0 1-.217-.217 34.208 34.208 0 0 1 2.281-7.767c-.1-.713-.229-1.434-.381-2.128a27.541 27.541 0 0 0-1.886-4.743c-.109 2.784.207 5.569.353 8.4.012.334-.479 0-.505-.234-.087-1.074-.214-2.143-.335-3.215 0 .4 0 .785-.013 1.177a11.949 11.949 0 0 1-1.329 4.668 11.263 11.263 0 0 1-1.23 6.03c-.662 1.367-1.87 3.472-3.157 4.188-.075.036-.235-.138-.162-.188 1.134-.856 1.94-2.578 2.669-3.824a12.745 12.745 0 0 0 1.449-5.335l-.107.226a17.072 17.072 0 0 1-3.81 4.319 7.836 7.836 0 0 0-2.385 5.2c-.019.093-.178-.027-.166-.111A9.571 9.571 0 0 1 3.525 28.1 13.62 13.62 0 0 1 5.3 26.086c-.379.23-.753.454-1.118.693C1.9 28.272 1.1 30.009.226 32.684c-.045.127-.246-.058-.225-.167a8.934 8.934 0 0 1 2.5-5.145" transform="translate(2.03 -5.61)" style="fill:#694b37"/>
                    </g>
                    <g data-name="Mask Group 14" transform="rotate(13.02 -518.695 497.649)" style="clip-path:url(#5yzebdmkif)">
                        <path data-name="Path 3127" d="M2.5 27.373c1.562-1.342 3.373-2.086 4.847-3.507a16.265 16.265 0 0 0 2.541-5.781 23 23 0 0 0 .252-5.844 26.664 26.664 0 0 1-.04-2.686c-.289.663-.58 1.327-.843 2.011-.357.908-.248 2.17-.683 2.99-.087.174-.446-.158-.382-.323a4.668 4.668 0 0 0 .084-1.133 9.414 9.414 0 0 1 .412-1.947 41.64 41.64 0 0 1 1.766-4.561A20.6 20.6 0 0 0 11.121 0a2.922 2.922 0 0 1 1.024 1.787 17.253 17.253 0 0 1-.708 5.48 19.541 19.541 0 0 0-.352 2.265c1.851 4.9 4.127 9.839 2.161 15.13-.07.172-.366-.08-.32-.232a14.144 14.144 0 0 0 .454-5.23c-.33.855-.753 1.678-1.068 2.536-.2.532-.737 3.846-1.184 3.869.082 0 .267.207.145.245-.033 0-.063.012-.093.019a.2.2 0 0 1-.217-.217 34.208 34.208 0 0 1 2.281-7.767c-.1-.713-.229-1.434-.381-2.128a27.541 27.541 0 0 0-1.886-4.743c-.109 2.784.207 5.569.353 8.4.012.334-.479 0-.505-.234-.087-1.074-.214-2.143-.335-3.215 0 .4 0 .785-.013 1.177a11.949 11.949 0 0 1-1.329 4.668 11.263 11.263 0 0 1-1.23 6.03c-.662 1.367-1.87 3.472-3.157 4.188-.075.036-.235-.138-.162-.188 1.134-.856 1.94-2.578 2.669-3.824a12.745 12.745 0 0 0 1.449-5.335l-.107.226a17.072 17.072 0 0 1-3.81 4.319 7.836 7.836 0 0 0-2.385 5.2c-.019.093-.178-.027-.166-.111A9.571 9.571 0 0 1 3.525 28.1 13.62 13.62 0 0 1 5.3 26.086c-.379.23-.753.454-1.118.693C1.9 28.272 1.1 30.009.226 32.684c-.045.127-.246-.058-.225-.167a8.934 8.934 0 0 1 2.5-5.145" transform="translate(2.03 -5.61)" style="fill:#694b37"/>
                    </g>
                    <g data-name="Mask Group 15" transform="scale(-1) rotate(-67 -114.266 -.006)" style="clip-path:url(#wgnngkt17i)">
                        <path data-name="Path 3128" d="M12.224 17.207c-1.66-.843-3.584-1.311-5.15-2.2a9.016 9.016 0 0 1-2.7-3.634 8.663 8.663 0 0 1-.268-3.674 9.933 9.933 0 0 0 .037-1.688c.307.417.617.834.9 1.264.379.571.263 1.364.725 1.879.092.109.474-.1.406-.2-.136-.209-.047-.491-.086-.714a3.941 3.941 0 0 0-.438-1.224 21.453 21.453 0 0 0-1.88-2.874C3.338 2.778 2.749 1.464 3.063 0a1.93 1.93 0 0 0-1.089 1.123 6.778 6.778 0 0 0 .753 3.445A7.758 7.758 0 0 1 3.1 5.992C1.133 9.075-1.285 12.177.8 15.5c.074.108.389-.05.34-.146a5.453 5.453 0 0 1-.483-3.288c.35.537.8 1.055 1.135 1.594.21.335.783 2.418 1.258 2.432-.087 0-.283.13-.154.154.035 0 .067.008.1.012.115.017.249-.058.23-.137a15.7 15.7 0 0 0-2.42-4.878A11.1 11.1 0 0 1 1.21 9.9a14.4 14.4 0 0 1 2-2.982 34.828 34.828 0 0 1-.372 5.282c-.013.21.509 0 .537-.147.092-.675.228-1.347.356-2.021 0 .249 0 .494.014.74a5.464 5.464 0 0 0 1.412 2.934A4.788 4.788 0 0 0 6.465 17.5a8.4 8.4 0 0 0 3.355 2.634c.079.023.25-.087.172-.118a9.966 9.966 0 0 1-2.836-2.4 5.749 5.749 0 0 1-1.54-3.354l.113.142a15.468 15.468 0 0 0 4.05 2.715 4.507 4.507 0 0 1 2.535 3.268c.02.058.189-.017.177-.07a4.49 4.49 0 0 0-1.357-2.646A12.335 12.335 0 0 0 9.246 16.4c.4.145.8.285 1.188.436a7.006 7.006 0 0 1 4.2 3.713c.048.08.261-.036.239-.1a5.291 5.291 0 0 0-2.653-3.234" transform="translate(1.145 -3.526)" style="fill:#694b37"/>
                    </g>
                    <g data-name="Mask Group 33" transform="rotate(54.02 -37.255 116.93)" style="clip-path:url(#aqpdo1481j)">
                        <path data-name="Path 3146" d="M1.775 19.444c1.11-.953 2.4-1.482 3.443-2.491a11.553 11.553 0 0 0 1.8-4.107A16.335 16.335 0 0 0 7.2 8.695a18.92 18.92 0 0 1-.024-1.908c-.205.471-.412.943-.6 1.429-.253.645-.176 1.541-.485 2.124-.062.124-.317-.112-.272-.23a3.317 3.317 0 0 0 .06-.81 6.69 6.69 0 0 1 .292-1.38 29.572 29.572 0 0 1 1.255-3.24A14.633 14.633 0 0 0 7.9 0a2.075 2.075 0 0 1 .728 1.269 12.256 12.256 0 0 1-.5 3.893 13.891 13.891 0 0 0-.25 1.609c1.315 3.484 2.931 6.989 1.535 10.748-.05.122-.26-.057-.227-.165a10.048 10.048 0 0 0 .314-3.716c-.234.607-.535 1.192-.759 1.8-.14.378-.523 2.732-.841 2.748.058 0 .189.147.1.174-.023 0-.045.009-.066.014a.139.139 0 0 1-.154-.154 24.3 24.3 0 0 1 1.628-5.52 19.255 19.255 0 0 0-.27-1.512A19.562 19.562 0 0 0 7.8 7.823c-.077 1.978.147 3.956.251 5.968.008.237-.34 0-.359-.166-.062-.763-.152-1.522-.238-2.284 0 .281 0 .558-.009.836a8.488 8.488 0 0 1-.945 3.316 8 8 0 0 1-.875 4.283 7.427 7.427 0 0 1-2.242 2.975c-.053.026-.167-.1-.115-.133a9.334 9.334 0 0 0 1.9-2.716 9.053 9.053 0 0 0 1.029-3.79l-.076.161a12.128 12.128 0 0 1-2.712 3.067 5.567 5.567 0 0 0-1.695 3.693c-.013.066-.126-.019-.118-.079a6.8 6.8 0 0 1 .907-2.99 9.678 9.678 0 0 1 1.263-1.434c-.269.164-.535.322-.794.492C1.348 20.083.78 21.317.161 23.217c-.032.09-.174-.041-.16-.119a6.346 6.346 0 0 1 1.774-3.655" transform="translate(1.442 -3.985)" style="fill:#694b37"/>
                    </g>
                    <g data-name="Mask Group 34" transform="scale(-1) rotate(-70.98 -65.483 -5.332)" style="clip-path:url(#kpq0aehpnk)">
                        <path data-name="Path 3147" d="M5.929 12.01c-.805-.589-1.738-.915-2.5-1.539a6.658 6.658 0 0 1-1.308-2.536 8.615 8.615 0 0 1-.13-2.564 9.962 9.962 0 0 0 .018-1.178c.149.291.3.582.435.883.184.4.128.952.352 1.312.045.076.23-.069.2-.142a1.752 1.752 0 0 1-.042-.5 3.605 3.605 0 0 0-.212-.854 16.733 16.733 0 0 0-.91-2A7.758 7.758 0 0 1 1.485 0a1.256 1.256 0 0 0-.527.784 6.519 6.519 0 0 0 .365 2.4 7.4 7.4 0 0 1 .181.994C.55 6.334-.623 8.5.39 10.821c.036.075.189-.035.165-.1a5.324 5.324 0 0 1-.234-2.3c.17.375.388.736.551 1.113.1.234.38 1.688.61 1.7-.042 0-.137.091-.075.108l.048.009a.1.1 0 0 0 .112-.1A13.376 13.376 0 0 0 .391 7.847c.05-.313.118-.629.2-.934a11.1 11.1 0 0 1 .972-2.081 34.816 34.816 0 0 1-.182 3.686c-.006.146.247 0 .26-.1.045-.471.11-.94.173-1.411 0 .174 0 .345.007.517A4.67 4.67 0 0 0 2.5 9.57a4.332 4.332 0 0 0 .635 2.646 4.746 4.746 0 0 0 1.627 1.837c.038.016.121-.061.083-.082a5.857 5.857 0 0 1-1.375-1.678 4.966 4.966 0 0 1-.747-2.341l.055.1a8.033 8.033 0 0 0 1.964 1.895 3.246 3.246 0 0 1 1.229 2.281c.01.041.092-.012.086-.049a3.764 3.764 0 0 0-.657-1.848 6.4 6.4 0 0 0-.916-.886c.2.1.388.2.576.3a4.224 4.224 0 0 1 2.04 2.596c.023.056.127-.025.116-.073a3.727 3.727 0 0 0-1.287-2.258" transform="translate(.555 -2.461)" style="fill:#694b37"/>
                    </g>
                    <g data-name="Mask Group 35" transform="scale(-1) rotate(-70.98 -40.724 -1.761)" style="clip-path:url(#kpq0aehpnk)">
                        <path data-name="Path 3148" d="M5.929 12.01c-.805-.589-1.738-.915-2.5-1.539a6.658 6.658 0 0 1-1.308-2.536 8.615 8.615 0 0 1-.13-2.564 9.962 9.962 0 0 0 .018-1.178c.149.291.3.582.435.883.184.4.128.952.352 1.312.045.076.23-.069.2-.142a1.752 1.752 0 0 1-.042-.5 3.605 3.605 0 0 0-.212-.854 16.733 16.733 0 0 0-.91-2A7.758 7.758 0 0 1 1.485 0a1.256 1.256 0 0 0-.527.784 6.519 6.519 0 0 0 .365 2.4 7.4 7.4 0 0 1 .181.994C.55 6.334-.623 8.5.39 10.821c.036.075.189-.035.165-.1a5.324 5.324 0 0 1-.234-2.3c.17.375.388.736.551 1.113.1.234.38 1.688.61 1.7-.042 0-.137.091-.075.108l.048.009a.1.1 0 0 0 .112-.1A13.376 13.376 0 0 0 .391 7.847c.05-.313.118-.629.2-.934a11.1 11.1 0 0 1 .972-2.081 34.816 34.816 0 0 1-.182 3.686c-.006.146.247 0 .26-.1.045-.471.11-.94.173-1.411 0 .174 0 .345.007.517A4.67 4.67 0 0 0 2.5 9.57a4.332 4.332 0 0 0 .635 2.646 4.746 4.746 0 0 0 1.627 1.837c.038.016.121-.061.083-.082a5.857 5.857 0 0 1-1.375-1.678 4.966 4.966 0 0 1-.747-2.341l.055.1a8.033 8.033 0 0 0 1.964 1.895 3.246 3.246 0 0 1 1.229 2.281c.01.041.092-.012.086-.049a3.764 3.764 0 0 0-.657-1.848 6.4 6.4 0 0 0-.916-.886c.2.1.388.2.576.3a4.224 4.224 0 0 1 2.04 2.596c.023.056.127-.025.116-.073a3.727 3.727 0 0 0-1.287-2.258" transform="translate(.555 -2.461)" style="fill:#694b37"/>
                    </g>
                </g>
            </g>
        </g>
        <path data-name="Path 3170" d="M3969.613 3554.823s-2.552-4.123-1.046 4.192 4.849 12.383 4.48 9.912-.393-1.77-1.249-5.878a22.855 22.855 0 0 1 0-8.226z" transform="translate(-3832.96 -3553.801)" style="fill:#583b27"/>
        <path data-name="Path 3171" d="M1.538.7S-1.042-2.1.481 3.552s4.9 8.424 4.528 6.743a41.555 41.555 0 0 0-1.262-4 10.586 10.586 0 0 1 0-5.6z" transform="matrix(.998 -.07 .07 .998 143.06 .972)" style="fill:#583b27"/>
        <path data-name="Path 3172" d="M3969.654 3554.312s-2.622-2.061-1.074 2.1 4.981 6.191 4.6 4.956a24.781 24.781 0 0 0-1.283-2.939 5.73 5.73 0 0 1 0-4.113z" transform="translate(-3813.132 -3553.801)" style="fill:#583b27"/>
        <path data-name="Path 3173" d="M3969.107 3554.312s-1.7-2.061-.7 2.1 3.236 6.191 2.99 4.956-.262-.885-.833-2.939a8.629 8.629 0 0 1 0-4.113z" transform="translate(-3841.511 -3553.225)" style="fill:#583b27"/>
    </g>
</svg>
